<?xml version="1.0" encoding="utf-8"?>
<!-- Generator: Adobe Illustrator 22.1.0, SVG Export Plug-In . SVG Version: 6.00 Build 0)  -->
<svg version="1.1" id="Layer_1" xmlns="http://www.w3.org/2000/svg" xmlns:xlink="http://www.w3.org/1999/xlink" x="0px" y="0px"
	 viewBox="0 0 185.6 53.9" style="enable-background:new 0 0 185.6 53.9;" xml:space="preserve">
<style type="text/css">
	.st0{display:none;}
	.st1{display:inline;}
	.st2{fill:url(#SVGID_1_);}
	.st3{fill:#202B2F;}
	.st4{fill:#FFFFFF;}
</style>
<g id="Layer_3">
</g>
<g id="Layer_1_1_">
	<g class="st0">
		<g class="st1">
			
				<linearGradient id="SVGID_1_" gradientUnits="userSpaceOnUse" x1="29.3" y1="-4.2918" x2="29.3" y2="55" gradientTransform="matrix(1 0 0 -1 0 48)">
				<stop  offset="0" style="stop-color:#884C9E"/>
				<stop  offset="1" style="stop-color:#BF3B2D"/>
			</linearGradient>
			<path class="st2" d="M58.6,13.7h-7.9v-2.4c0-3-0.3-5.6-0.9-7.9c-0.6-2.3-1.6-4.2-3.1-5.8C44-5.5,40.4-7,35.8-7H22.7
				c-2.4,0-4.5,0.4-6.3,1.1C14.6-5.1,13-4,11.6-2.6c-2.6,3.1-4,7.7-4,13.8v2.5H0l0.4,7h7.2V21c0,10.9,4.1,16.9,12.2,17.9V52l6.1,0.2
				V39.1h6.3V52l6.1,0.2V38.9c3.4-0.5,6.2-1.9,8.3-4.4c2.6-3,4-7.6,4-13.6v-0.4h7.5L58.6,13.7z M44.6,21c0,7.5-3.1,11.2-9.2,11.2
				H23.2c-6.1,0-9.2-3.7-9.2-11.2v-9.8C14,3.7,17.1,0,23.2,0h12.2c6.1,0,9.2,3.7,9.2,11.1C44.6,11.1,44.6,21,44.6,21z"/>
			<circle class="st3" cx="24.8" cy="15.6" r="1.8"/>
			<circle class="st3" cx="33.6" cy="15.6" r="3.1"/>
		</g>
		<g class="st1">
			<g>
				<path class="st3" d="M66.2-0.4H71v6.5h-4.8V-0.4z M66.2,12.6H71v28h-4.8V12.6z"/>
				<path class="st3" d="M90.3,12c2,0,3.9,0.4,5.7,1.1c1.8,0.8,3.3,1.8,4.7,3.1c1.3,1.3,2.4,2.9,3.1,4.6c0.8,1.8,1.1,3.7,1.1,5.7v14
					h-4.8v-14c0-1.3-0.3-2.6-0.8-3.8c-0.5-1.2-1.2-2.2-2.1-3.1s-1.9-1.6-3.1-2.1s-2.5-0.8-3.9-0.8c-1.3,0-2.6,0.3-3.8,0.8
					c-1.2,0.5-2.2,1.2-3.1,2.1s-1.6,1.9-2.1,3.1s-0.8,2.5-0.8,3.8v14h-4.8v-14c0-2,0.4-3.9,1.1-5.7c0.8-1.8,1.8-3.3,3.1-4.6
					c1.3-1.3,2.9-2.3,4.6-3.1C86.4,12.4,88.3,12,90.3,12z"/>
				<path class="st3" d="M134.8,12.6l-12,28h-4.3l-12-28h5.2l9,21c1.5-3.5,3-7,4.5-10.6s3-7.1,4.5-10.5h5.1V12.6z"/>
				<path class="st3" d="M150.2,41.3c-2,0-3.9-0.4-5.7-1.1c-1.8-0.8-3.3-1.8-4.7-3.1c-1.3-1.3-2.4-2.9-3.1-4.6
					c-0.8-1.8-1.1-3.6-1.1-5.7c0-2,0.4-3.9,1.1-5.7c0.8-1.8,1.8-3.3,3.1-4.7c1.3-1.3,2.9-2.3,4.7-3.1c1.8-0.8,3.7-1.1,5.7-1.1
					s3.9,0.4,5.7,1.1c1.8,0.8,3.3,1.8,4.6,3.1c1.3,1.3,2.3,2.9,3.1,4.7c0.8,1.8,1.1,3.7,1.1,5.7c0,0.3,0,0.5,0,0.8s0,0.8-0.1,1.5
					h-23.9c0.3,1.1,0.7,2.1,1.3,3s1.3,1.7,2.1,2.4s1.7,1.2,2.8,1.6c1,0.4,2.1,0.6,3.3,0.6c0.9,0,1.8-0.2,2.7-0.7s1.8-1.1,2.6-1.9
					l3.4,3.4c-1.2,1.2-2.6,2.2-4.1,2.9C153.3,41,151.8,41.3,150.2,41.3z M159.7,24.4c-0.3-1-0.7-2-1.3-2.9s-1.3-1.7-2.1-2.4
					c-0.8-0.7-1.7-1.2-2.8-1.5c-1-0.4-2.1-0.6-3.3-0.6s-2.3,0.2-3.3,0.6s-2,0.9-2.8,1.5c-0.8,0.7-1.5,1.4-2.1,2.4
					c-0.6,0.9-1,1.9-1.3,2.9H159.7z"/>
				<path class="st3" d="M184.9,12c2,0,3.9,0.4,5.7,1.1c1.8,0.8,3.3,1.8,4.7,3.1s2.4,2.9,3.1,4.6c0.8,1.8,1.1,3.7,1.1,5.7v14h-4.8
					v-14c0-1.3-0.3-2.6-0.8-3.8c-0.5-1.2-1.2-2.2-2.1-3.1c-0.9-0.9-1.9-1.6-3.1-2.1c-1.2-0.5-2.5-0.8-3.9-0.8
					c-1.3,0-2.6,0.3-3.8,0.8s-2.2,1.2-3.1,2.1c-0.9,0.9-1.6,1.9-2.1,3.1s-0.8,2.5-0.8,3.8v14h-4.8v-14c0-2,0.4-3.9,1.1-5.7
					c0.8-1.8,1.8-3.3,3.1-4.6c1.3-1.3,2.9-2.3,4.6-3.1C181,12.4,182.9,12,184.9,12z"/>
				<path class="st3" d="M204.8,5.9h4.8v6.8h9.8v4.8h-9.8v15.7c0,0.8,0.3,1.5,0.9,2.1c0.6,0.6,1.3,0.9,2.2,0.9s1.6-0.4,2.2-1.2
					c0.6-0.8,0.9-1.7,0.9-2.9h4.8c0,1.2-0.2,2.4-0.6,3.4c-0.4,1.1-1,2-1.7,2.8s-1.5,1.4-2.5,1.9s-2,0.7-3.1,0.7s-2.1-0.2-3.1-0.6
					c-1-0.4-1.8-1-2.5-1.7s-1.3-1.5-1.7-2.5c-0.4-0.9-0.6-1.9-0.6-3L204.8,5.9L204.8,5.9z"/>
				<path class="st3" d="M237.3,12c2,0,3.9,0.4,5.7,1.1c1.8,0.8,3.3,1.8,4.6,3.1s2.4,2.9,3.1,4.6c0.8,1.8,1.1,3.7,1.1,5.7
					s-0.4,3.9-1.1,5.7c-0.8,1.8-1.8,3.3-3.1,4.6s-2.9,2.3-4.6,3.1c-1.8,0.8-3.7,1.1-5.7,1.1s-3.9-0.4-5.7-1.1
					c-1.8-0.8-3.3-1.8-4.6-3.1s-2.4-2.8-3.1-4.6c-0.8-1.8-1.1-3.7-1.1-5.7s0.4-3.9,1.1-5.7c0.8-1.8,1.8-3.3,3.1-4.6
					c1.3-1.3,2.9-2.3,4.6-3.1C233.4,12.4,235.3,12,237.3,12z M237.3,16.8c-1.3,0-2.6,0.3-3.8,0.8s-2.2,1.2-3.1,2.1
					c-0.9,0.9-1.6,1.9-2.1,3.1s-0.8,2.5-0.8,3.8s0.3,2.6,0.8,3.8s1.2,2.2,2.1,3.1c0.9,0.9,1.9,1.6,3.1,2.1c1.2,0.5,2.5,0.8,3.8,0.8
					s2.6-0.3,3.8-0.8s2.2-1.2,3.1-2.1c0.9-0.9,1.6-1.9,2.1-3.1c0.5-1.2,0.8-2.5,0.8-3.8s-0.3-2.6-0.8-3.8c-0.5-1.2-1.2-2.2-2.1-3.1
					c-0.9-0.9-1.9-1.6-3.1-2.1C239.9,17.1,238.7,16.8,237.3,16.8z"/>
			</g>
			<g>
				<path class="st3" d="M70.5,47.4C70.5,47.5,70.4,47.5,70.5,47.4c-0.1,0.1-0.2,0.1-0.3,0s-0.2-0.1-0.3-0.2
					c-0.1-0.1-0.3-0.1-0.5-0.2c-0.2-0.1-0.4-0.1-0.7-0.1c-0.2,0-0.5,0-0.7,0.1s-0.4,0.2-0.5,0.3s-0.3,0.3-0.3,0.4
					c-0.1,0.2-0.1,0.3-0.1,0.5s0.1,0.4,0.2,0.5s0.2,0.3,0.4,0.4c0.2,0.1,0.4,0.2,0.6,0.3s0.4,0.1,0.7,0.2c0.2,0.1,0.5,0.2,0.7,0.2
					c0.2,0.1,0.4,0.2,0.6,0.3s0.3,0.3,0.4,0.5s0.2,0.4,0.2,0.7s-0.1,0.6-0.2,0.8c-0.1,0.3-0.3,0.5-0.5,0.6c-0.2,0.2-0.4,0.3-0.7,0.4
					c-0.3,0.1-0.6,0.2-1,0.2c-0.5,0-0.9-0.1-1.2-0.2c-0.3-0.1-0.6-0.3-0.9-0.6l0.2-0.2c0,0,0-0.1,0.1-0.1h0.1c0.1,0,0.1,0,0.2,0.1
					s0.2,0.1,0.3,0.2c0.1,0.1,0.3,0.2,0.5,0.2c0.2,0.1,0.5,0.1,0.8,0.1s0.5,0,0.7-0.1s0.4-0.2,0.5-0.3s0.3-0.3,0.3-0.5
					c0.1-0.2,0.1-0.4,0.1-0.6c0-0.2-0.1-0.4-0.2-0.6c-0.1-0.1-0.2-0.3-0.4-0.4c-0.2-0.1-0.4-0.2-0.6-0.3s-0.4-0.1-0.7-0.2
					c-0.2-0.1-0.5-0.1-0.7-0.2c-0.2-0.1-0.4-0.2-0.6-0.3s-0.3-0.3-0.4-0.5s-0.2-0.4-0.2-0.7c0-0.2,0.1-0.5,0.2-0.7s0.2-0.4,0.4-0.6
					c0.2-0.2,0.4-0.3,0.7-0.4c0.3-0.1,0.6-0.1,0.9-0.1c0.4,0,0.8,0.1,1.1,0.2c0.3,0.1,0.6,0.3,0.9,0.5L70.5,47.4z"/>
				<path class="st3" d="M77.9,46.4c0.5,0,0.9,0.1,1.3,0.2c0.4,0.2,0.7,0.4,1,0.7s0.5,0.7,0.6,1.1c0.1,0.4,0.2,0.9,0.2,1.4
					s-0.1,1-0.2,1.4s-0.3,0.8-0.6,1.1s-0.6,0.5-1,0.7s-0.8,0.2-1.3,0.2S77,53.1,76.6,53c-0.4-0.2-0.7-0.4-1-0.7s-0.5-0.7-0.6-1.1
					c-0.1-0.4-0.2-0.9-0.2-1.4s0.1-1,0.2-1.4s0.3-0.8,0.6-1.1s0.6-0.5,1-0.7C77,46.5,77.4,46.4,77.9,46.4z M77.9,52.8
					c0.4,0,0.7-0.1,1-0.2c0.3-0.1,0.5-0.3,0.7-0.6s0.3-0.6,0.4-0.9c0.1-0.4,0.1-0.8,0.1-1.2s0-0.8-0.1-1.2s-0.2-0.7-0.4-0.9
					c-0.2-0.3-0.4-0.5-0.7-0.6c-0.3-0.1-0.6-0.2-1-0.2s-0.7,0.1-1,0.2c-0.3,0.1-0.5,0.3-0.7,0.6s-0.3,0.6-0.4,0.9
					c-0.1,0.4-0.2,0.8-0.2,1.2s0,0.9,0.2,1.2c0.1,0.4,0.3,0.7,0.4,0.9c0.2,0.3,0.4,0.4,0.7,0.6C77.1,52.7,77.5,52.8,77.9,52.8z"/>
				<path class="st3" d="M85.6,53.2v-6l-0.9-0.1c-0.1,0-0.2-0.1-0.2-0.2v-0.3h1.1v-0.8c0-0.4,0-0.7,0.1-1s0.2-0.5,0.4-0.7
					c0.2-0.2,0.4-0.3,0.6-0.4c0.3-0.1,0.5-0.1,0.8-0.1c0.1,0,0.3,0,0.4,0s0.3,0.1,0.4,0.1V44c0,0.1,0,0.1-0.1,0.1s-0.1,0-0.2,0
					s-0.2,0-0.3,0c-0.2,0-0.4,0-0.6,0.1s-0.3,0.2-0.5,0.3c-0.1,0.1-0.2,0.3-0.3,0.6c-0.1,0.2-0.1,0.5-0.1,0.8v0.8h2.2v0.5h-2.2v6
					C86.2,53.2,85.6,53.2,85.6,53.2z"/>
				<path class="st3" d="M94.1,53.3c-0.5,0-0.8-0.1-1.1-0.4c-0.2-0.3-0.4-0.6-0.4-1.2v-4.6h-1h-0.1V47v-0.2l1.1-0.1l0.2-2.4v-0.1
					h0.1h0.3v2.5h2.1v0.5h-2.1v4.5c0,0.2,0,0.3,0.1,0.5c0,0.1,0.1,0.2,0.2,0.3s0.2,0.1,0.3,0.2c0.1,0,0.2,0.1,0.4,0.1
					c0.2,0,0.3,0,0.4-0.1c0.1,0,0.2-0.1,0.3-0.2c0.1-0.1,0.2-0.1,0.2-0.2c0.1,0,0.1-0.1,0.1-0.1s0.1,0,0.1,0.1l0.2,0.3
					c-0.2,0.2-0.4,0.3-0.6,0.5S94.4,53.3,94.1,53.3z"/>
				<path class="st3" d="M98.9,46.6h0.5c0.1,0,0.1,0,0.2,0.1l0.1,0.1l1.7,5.3c0,0.1,0.1,0.2,0.1,0.3s0,0.2,0.1,0.3
					c0-0.1,0-0.2,0.1-0.3c0-0.1,0.1-0.2,0.1-0.3l1.8-5.3c0-0.1,0.1-0.1,0.2-0.1h0.3c0.1,0,0.2,0,0.2,0.1l1.8,5.3
					c0.1,0.2,0.1,0.4,0.2,0.6c0-0.1,0-0.2,0.1-0.3c0-0.1,0-0.2,0.1-0.3l1.7-5.3c0-0.1,0.1-0.2,0.2-0.2h0.5l-2.2,6.7h-0.5
					c-0.1,0-0.1,0-0.2-0.1l-1.8-5.4c0-0.1,0-0.1-0.1-0.2c0-0.1,0-0.1,0-0.2c0,0.1,0,0.1,0,0.2c0,0.1,0,0.1-0.1,0.2l-1.8,5.4
					c0,0.1-0.1,0.1-0.2,0.1h-0.4L98.9,46.6z"/>
				<path class="st3" d="M116.7,53.2c-0.1,0-0.2-0.1-0.2-0.2l-0.1-0.9c-0.2,0.2-0.4,0.3-0.5,0.5c-0.2,0.1-0.4,0.3-0.6,0.4
					c-0.2,0.1-0.4,0.2-0.6,0.2c-0.2,0.1-0.5,0.1-0.8,0.1c-0.2,0-0.4,0-0.7-0.1c-0.2-0.1-0.4-0.2-0.6-0.3s-0.3-0.3-0.4-0.5
					s-0.2-0.5-0.2-0.8s0.1-0.5,0.2-0.8c0.2-0.2,0.4-0.5,0.8-0.6c0.3-0.2,0.8-0.3,1.3-0.4c0.5-0.1,1.2-0.2,1.9-0.2v-0.7
					c0-0.6-0.1-1.1-0.4-1.4c-0.3-0.3-0.7-0.5-1.2-0.5c-0.3,0-0.6,0-0.8,0.1c-0.2,0.1-0.4,0.2-0.6,0.3s-0.3,0.2-0.4,0.3
					s-0.2,0.1-0.2,0.1c-0.1,0-0.2,0-0.2-0.1l-0.1-0.2c0.3-0.3,0.7-0.6,1.1-0.8s0.8-0.3,1.3-0.3c0.4,0,0.7,0.1,0.9,0.2
					c0.3,0.1,0.5,0.3,0.7,0.5s0.3,0.5,0.4,0.8s0.1,0.6,0.1,1v4.3C116.8,53.2,116.7,53.2,116.7,53.2z M114,52.9c0.3,0,0.5,0,0.7-0.1
					s0.4-0.1,0.6-0.2c0.2-0.1,0.4-0.2,0.5-0.4c0.2-0.1,0.3-0.3,0.5-0.4V50c-0.6,0-1.2,0.1-1.6,0.1s-0.8,0.2-1.1,0.3
					c-0.3,0.1-0.5,0.3-0.7,0.5c-0.1,0.2-0.2,0.4-0.2,0.6c0,0.2,0,0.4,0.1,0.6c0.1,0.2,0.2,0.3,0.3,0.4c0.1,0.1,0.3,0.2,0.4,0.2
					C113.6,52.8,113.8,52.9,114,52.9z"/>
				<path class="st3" d="M121.6,53.2v-6.7h0.3c0.1,0,0.1,0,0.2,0c0,0,0.1,0.1,0.1,0.2l0.1,1.4c0.2-0.5,0.5-1,0.9-1.3
					s0.8-0.5,1.3-0.5c0.2,0,0.4,0,0.6,0.1c0.2,0,0.3,0.1,0.5,0.2l-0.1,0.4c0,0.1-0.1,0.1-0.1,0.1h-0.1c-0.1,0-0.1,0-0.2-0.1
					c-0.1,0-0.2,0-0.3-0.1c-0.1,0-0.2,0-0.4,0c-0.5,0-0.9,0.2-1.2,0.5c-0.3,0.3-0.6,0.8-0.8,1.4v4.3L121.6,53.2L121.6,53.2z"/>
				<path class="st3" d="M132.2,46.4c0.4,0,0.7,0.1,1,0.2c0.3,0.1,0.6,0.3,0.8,0.6c0.2,0.2,0.4,0.6,0.5,0.9c0.1,0.4,0.2,0.8,0.2,1.2
					c0,0.1,0,0.2,0,0.2l-0.1,0.1h-4.8v0.1c0,0.5,0.1,0.9,0.2,1.3c0.1,0.4,0.3,0.7,0.5,1s0.5,0.4,0.8,0.6c0.3,0.1,0.6,0.2,1,0.2
					c0.3,0,0.6,0,0.9-0.1c0.2-0.1,0.5-0.2,0.6-0.2c0.2-0.1,0.3-0.2,0.4-0.2c0.1-0.1,0.2-0.1,0.2-0.1c0.1,0,0.1,0,0.1,0.1l0.2,0.2
					c-0.1,0.1-0.2,0.3-0.4,0.4c-0.2,0.1-0.4,0.2-0.6,0.3c-0.2,0.1-0.4,0.1-0.7,0.2c-0.2,0-0.5,0.1-0.7,0.1c-0.5,0-0.9-0.1-1.2-0.2
					c-0.4-0.2-0.7-0.4-1-0.7s-0.5-0.7-0.6-1.1c-0.1-0.4-0.2-0.9-0.2-1.5c0-0.5,0.1-0.9,0.2-1.3c0.1-0.4,0.3-0.8,0.6-1
					c0.3-0.3,0.6-0.5,0.9-0.7C131.3,46.5,131.7,46.4,132.2,46.4z M132.2,46.9c-0.3,0-0.7,0.1-0.9,0.2c-0.3,0.1-0.5,0.3-0.7,0.5
					s-0.4,0.4-0.5,0.7s-0.2,0.6-0.2,0.9h4.4c0-0.4,0-0.7-0.1-1s-0.2-0.5-0.4-0.7s-0.4-0.3-0.6-0.5C132.8,47,132.5,46.9,132.2,46.9z"
					/>
				<path class="st3" d="M148.2,47.4c0,0.1-0.1,0.1-0.1,0.1s-0.1,0-0.2-0.1c-0.1-0.1-0.2-0.1-0.3-0.2c-0.1-0.1-0.3-0.1-0.5-0.2
					c-0.2-0.1-0.4-0.1-0.7-0.1c-0.2,0-0.5,0-0.7,0.1s-0.4,0.2-0.5,0.3s-0.3,0.3-0.3,0.4c-0.1,0.2-0.1,0.3-0.1,0.5s0.1,0.4,0.2,0.5
					c0.1,0.1,0.2,0.3,0.4,0.4c0.2,0.1,0.4,0.2,0.6,0.3c0.2,0.1,0.4,0.1,0.7,0.2c0.2,0.1,0.5,0.2,0.7,0.2c0.2,0.1,0.4,0.2,0.6,0.3
					c0.2,0.1,0.3,0.3,0.4,0.5c0.1,0.2,0.2,0.4,0.2,0.7s-0.1,0.6-0.2,0.8c-0.1,0.3-0.3,0.5-0.5,0.6c-0.2,0.2-0.4,0.3-0.7,0.4
					c-0.3,0.1-0.6,0.2-1,0.2c-0.5,0-0.9-0.1-1.2-0.2c-0.3-0.1-0.6-0.3-0.9-0.6l0.2-0.2c0,0,0-0.1,0.1-0.1h0.1c0.1,0,0.1,0,0.2,0.1
					c0.1,0.1,0.2,0.1,0.3,0.2c0.1,0.1,0.3,0.2,0.5,0.2c0.2,0.1,0.5,0.1,0.8,0.1s0.5,0,0.7-0.1s0.4-0.2,0.5-0.3s0.3-0.3,0.3-0.5
					c0.1-0.2,0.1-0.4,0.1-0.6c0-0.2-0.1-0.4-0.2-0.6c-0.1-0.1-0.2-0.3-0.4-0.4c-0.2-0.1-0.4-0.2-0.6-0.3c-0.2-0.1-0.4-0.1-0.7-0.2
					c-0.2-0.1-0.5-0.1-0.7-0.2c-0.2-0.1-0.4-0.2-0.6-0.3c-0.2-0.1-0.3-0.3-0.4-0.5c-0.1-0.2-0.2-0.4-0.2-0.7c0-0.2,0.1-0.5,0.2-0.7
					c0.1-0.2,0.2-0.4,0.4-0.6c0.2-0.2,0.4-0.3,0.7-0.4c0.3-0.1,0.6-0.1,0.9-0.1c0.4,0,0.8,0.1,1.1,0.2c0.3,0.1,0.6,0.3,0.9,0.5
					L148.2,47.4z"/>
				<path class="st3" d="M155.5,46.4c0.5,0,0.9,0.1,1.3,0.2c0.4,0.2,0.7,0.4,1,0.7s0.5,0.7,0.6,1.1c0.1,0.4,0.2,0.9,0.2,1.4
					s-0.1,1-0.2,1.4c-0.1,0.4-0.3,0.8-0.6,1.1s-0.6,0.5-1,0.7s-0.8,0.2-1.3,0.2s-0.9-0.1-1.3-0.2c-0.4-0.2-0.7-0.4-1-0.7
					s-0.5-0.7-0.6-1.1c-0.1-0.4-0.2-0.9-0.2-1.4s0.1-1,0.2-1.4c0.1-0.4,0.3-0.8,0.6-1.1s0.6-0.5,1-0.7
					C154.6,46.5,155,46.4,155.5,46.4z M155.5,52.8c0.4,0,0.7-0.1,1-0.2c0.3-0.1,0.5-0.3,0.7-0.6s0.3-0.6,0.4-0.9
					c0.1-0.4,0.1-0.8,0.1-1.2s0-0.8-0.1-1.2s-0.2-0.7-0.4-0.9c-0.2-0.3-0.4-0.5-0.7-0.6s-0.6-0.2-1-0.2s-0.7,0.1-1,0.2
					c-0.3,0.1-0.5,0.3-0.7,0.6s-0.3,0.6-0.4,0.9c-0.1,0.4-0.2,0.8-0.2,1.2s0,0.9,0.2,1.2c0.1,0.4,0.3,0.7,0.4,0.9
					c0.2,0.3,0.4,0.4,0.7,0.6C154.8,52.7,155.1,52.8,155.5,52.8z"/>
				<path class="st3" d="M163.8,43.5v9.8h-0.6v-9.8H163.8z"/>
				<path class="st3" d="M169.3,46.6v4.3c0,0.6,0.1,1.1,0.4,1.5c0.3,0.4,0.7,0.5,1.3,0.5c0.4,0,0.8-0.1,1.2-0.3s0.7-0.5,1-0.9v-5
					h0.6v6.7h-0.4c-0.1,0-0.2-0.1-0.2-0.2l-0.1-1c-0.3,0.4-0.7,0.7-1.1,0.9c-0.4,0.2-0.9,0.3-1.4,0.3c-0.4,0-0.7-0.1-1-0.2
					c-0.3-0.1-0.5-0.3-0.7-0.5s-0.3-0.5-0.4-0.8c-0.1-0.3-0.1-0.7-0.1-1v-4.3H169.3z"/>
				<path class="st3" d="M180.6,53.3c-0.5,0-0.8-0.1-1.1-0.4c-0.2-0.3-0.4-0.6-0.4-1.2v-4.6h-1H178V47v-0.2l1.1-0.1l0.2-2.4v-0.1
					h0.1h0.3v2.5h2.1v0.5h-2.1v4.5c0,0.2,0,0.3,0.1,0.5c0,0.1,0.1,0.2,0.2,0.3c0.1,0.1,0.2,0.1,0.3,0.2c0.1,0,0.2,0.1,0.4,0.1
					s0.3,0,0.4-0.1c0.1,0,0.2-0.1,0.3-0.2c0.1-0.1,0.2-0.1,0.2-0.2c0.1,0,0.1-0.1,0.1-0.1s0.1,0,0.1,0.1l0.2,0.3
					c-0.2,0.2-0.4,0.3-0.6,0.5S180.9,53.3,180.6,53.3z"/>
				<path class="st3" d="M187.4,44.3c0,0.1,0,0.2,0,0.2c0,0.1-0.1,0.1-0.1,0.2c-0.1,0.1-0.1,0.1-0.2,0.1c-0.1,0-0.1,0-0.2,0
					s-0.2,0-0.2,0c-0.1,0-0.1-0.1-0.2-0.1c-0.1-0.1-0.1-0.1-0.1-0.2c0-0.1,0-0.1,0-0.2c0-0.1,0-0.2,0-0.2c0-0.1,0.1-0.1,0.1-0.2
					c0.1-0.1,0.1-0.1,0.2-0.1c0.1,0,0.1,0,0.2,0s0.2,0,0.2,0c0.1,0,0.1,0.1,0.2,0.1c0.1,0.1,0.1,0.1,0.1,0.2
					C187.4,44.1,187.4,44.2,187.4,44.3z M187.1,46.6v6.7h-0.6v-6.7H187.1z"/>
				<path class="st3" d="M194.7,46.4c0.5,0,0.9,0.1,1.3,0.2c0.4,0.2,0.7,0.4,1,0.7s0.5,0.7,0.6,1.1c0.1,0.4,0.2,0.9,0.2,1.4
					s-0.1,1-0.2,1.4c-0.1,0.4-0.3,0.8-0.6,1.1s-0.6,0.5-1,0.7s-0.8,0.2-1.3,0.2s-0.9-0.1-1.3-0.2c-0.4-0.2-0.7-0.4-1-0.7
					s-0.5-0.7-0.6-1.1c-0.1-0.4-0.2-0.9-0.2-1.4s0.1-1,0.2-1.4c0.1-0.4,0.3-0.8,0.6-1.1s0.6-0.5,1-0.7
					C193.8,46.5,194.2,46.4,194.7,46.4z M194.7,52.8c0.4,0,0.7-0.1,1-0.2c0.3-0.1,0.5-0.3,0.7-0.6s0.3-0.6,0.4-0.9
					c0.1-0.4,0.1-0.8,0.1-1.2s0-0.8-0.1-1.2s-0.2-0.7-0.4-0.9c-0.2-0.3-0.4-0.5-0.7-0.6s-0.6-0.2-1-0.2s-0.7,0.1-1,0.2
					c-0.3,0.1-0.5,0.3-0.7,0.6s-0.3,0.6-0.4,0.9c-0.1,0.4-0.2,0.8-0.2,1.2s0,0.9,0.2,1.2c0.1,0.4,0.3,0.7,0.4,0.9
					c0.2,0.3,0.4,0.4,0.7,0.6C194,52.7,194.3,52.8,194.7,52.8z"/>
				<path class="st3" d="M202.1,53.2v-6.7h0.3c0.1,0,0.2,0.1,0.2,0.2l0.1,1c0.3-0.4,0.7-0.7,1.1-0.9c0.4-0.2,0.9-0.4,1.3-0.4
					c0.4,0,0.7,0.1,1,0.2c0.3,0.1,0.5,0.3,0.7,0.5s0.3,0.5,0.4,0.8c0.1,0.3,0.1,0.7,0.1,1v4.3h-0.6V49c0-0.6-0.1-1.1-0.4-1.5
					c-0.3-0.4-0.7-0.5-1.3-0.5c-0.4,0-0.8,0.1-1.2,0.3s-0.7,0.5-1,0.9v5H202.1z"/>
				<path class="st3" d="M215.8,47.4c0,0.1-0.1,0.1-0.1,0.1s-0.1,0-0.2-0.1c-0.1-0.1-0.2-0.1-0.3-0.2c-0.1-0.1-0.3-0.1-0.5-0.2
					c-0.2-0.1-0.4-0.1-0.7-0.1c-0.2,0-0.5,0-0.7,0.1s-0.4,0.2-0.5,0.3s-0.3,0.3-0.3,0.4c-0.1,0.2-0.1,0.3-0.1,0.5s0.1,0.4,0.2,0.5
					c0.1,0.1,0.2,0.3,0.4,0.4c0.2,0.1,0.4,0.2,0.6,0.3c0.2,0.1,0.4,0.1,0.7,0.2c0.2,0.1,0.5,0.2,0.7,0.2c0.2,0.1,0.4,0.2,0.6,0.3
					c0.2,0.1,0.3,0.3,0.4,0.5c0.1,0.2,0.2,0.4,0.2,0.7s-0.1,0.6-0.2,0.8s-0.3,0.5-0.5,0.6c-0.2,0.2-0.4,0.3-0.7,0.4
					c-0.3,0.1-0.6,0.2-1,0.2c-0.5,0-0.9-0.1-1.2-0.2c-0.3-0.1-0.6-0.3-0.9-0.6l0.2-0.2c0,0,0-0.1,0.1-0.1h0.1c0.1,0,0.1,0,0.2,0.1
					c0.1,0.1,0.2,0.1,0.3,0.2c0.1,0.1,0.3,0.2,0.5,0.2c0.2,0.1,0.5,0.1,0.8,0.1s0.5,0,0.7-0.1s0.4-0.2,0.5-0.3s0.3-0.3,0.3-0.5
					c0.1-0.2,0.1-0.4,0.1-0.6c0-0.2-0.1-0.4-0.2-0.6c-0.1-0.1-0.2-0.3-0.4-0.4c-0.2-0.1-0.4-0.2-0.6-0.3c-0.2-0.1-0.4-0.1-0.7-0.2
					c-0.2-0.1-0.5-0.1-0.7-0.2c-0.2-0.1-0.4-0.2-0.6-0.3c-0.2-0.1-0.3-0.3-0.4-0.5c-0.1-0.2-0.2-0.4-0.2-0.7c0-0.2,0.1-0.5,0.2-0.7
					c0.1-0.2,0.2-0.4,0.4-0.6c0.2-0.2,0.4-0.3,0.7-0.4c0.3-0.1,0.6-0.1,0.9-0.1c0.4,0,0.8,0.1,1.1,0.2c0.3,0.1,0.6,0.3,0.9,0.5
					L215.8,47.4z"/>
				<path class="st3" d="M227,44.3c0,0.1,0,0.2,0,0.2c0,0.1-0.1,0.1-0.1,0.2c-0.1,0.1-0.1,0.1-0.2,0.1c-0.1,0-0.1,0-0.2,0
					c-0.1,0-0.2,0-0.2,0c-0.1,0-0.1-0.1-0.2-0.1c-0.1-0.1-0.1-0.1-0.1-0.2c0-0.1,0-0.1,0-0.2c0-0.1,0-0.2,0-0.2
					c0-0.1,0.1-0.1,0.1-0.2c0.1-0.1,0.1-0.1,0.2-0.1c0.1,0,0.1,0,0.2,0c0.1,0,0.2,0,0.2,0c0.1,0,0.1,0.1,0.2,0.1
					C227,44,227,44,227,44.1C226.9,44.1,227,44.2,227,44.3z M226.7,46.6v6.7H226v-6.7H226.7z"/>
				<path class="st3" d="M231.7,53.2v-6.7h0.3c0.1,0,0.2,0.1,0.2,0.2l0.1,1c0.3-0.4,0.7-0.7,1.1-0.9c0.4-0.2,0.9-0.4,1.3-0.4
					c0.4,0,0.7,0.1,1,0.2c0.3,0.1,0.5,0.3,0.7,0.5s0.3,0.5,0.4,0.8c0.1,0.3,0.1,0.7,0.1,1v4.3h-0.6V49c0-0.6-0.1-1.1-0.4-1.5
					c-0.3-0.4-0.7-0.5-1.3-0.5c-0.4,0-0.8,0.1-1.2,0.3s-0.7,0.5-1,0.9v5H231.7z"/>
				<path class="st3" d="M246.1,47.4C246.1,47.5,246,47.5,246.1,47.4c-0.1,0.1-0.1,0.1-0.1,0.1s-0.1,0-0.2-0.1
					c-0.1-0.1-0.2-0.1-0.3-0.2c-0.1-0.1-0.3-0.1-0.5-0.2c-0.2-0.1-0.4-0.1-0.7-0.1c-0.4,0-0.7,0.1-1,0.2c-0.3,0.1-0.5,0.3-0.7,0.6
					s-0.4,0.6-0.5,0.9c-0.1,0.4-0.2,0.8-0.2,1.2c0,0.5,0.1,0.9,0.2,1.2c0.1,0.4,0.3,0.7,0.5,0.9s0.4,0.4,0.7,0.6s0.6,0.2,1,0.2
					c0.3,0,0.6,0,0.8-0.1s0.4-0.2,0.5-0.2c0.1-0.1,0.3-0.2,0.3-0.2c0.1-0.1,0.1-0.1,0.2-0.1c0.1,0,0.1,0,0.1,0.1l0.2,0.2
					c-0.1,0.1-0.2,0.3-0.4,0.4c-0.2,0.1-0.3,0.2-0.5,0.3s-0.4,0.2-0.6,0.2c-0.2,0-0.5,0.1-0.7,0.1c-0.4,0-0.8-0.1-1.2-0.2
					c-0.4-0.2-0.7-0.4-0.9-0.7c-0.3-0.3-0.4-0.7-0.6-1.1c-0.1-0.4-0.2-0.9-0.2-1.4s0.1-1,0.2-1.4c0.1-0.4,0.3-0.8,0.6-1.1
					s0.6-0.5,0.9-0.7c0.4-0.2,0.8-0.3,1.3-0.3c0.4,0,0.8,0.1,1.2,0.2c0.3,0.1,0.6,0.3,0.9,0.6L246.1,47.4z"/>
				<path class="st3" d="M250.1,52.7c0-0.1,0-0.2,0-0.2c0-0.1,0.1-0.1,0.1-0.2c0.1-0.1,0.1-0.1,0.2-0.1c0.1,0,0.2,0,0.2,0
					c0.1,0,0.2,0,0.2,0c0.1,0,0.1,0.1,0.2,0.1c0.1,0.1,0.1,0.1,0.1,0.2c0,0.1,0.1,0.2,0.1,0.2c0,0.1,0,0.2-0.1,0.2
					c0,0.1-0.1,0.1-0.1,0.2c-0.1,0.1-0.1,0.1-0.2,0.1c-0.1,0-0.2,0-0.2,0c-0.2,0-0.3-0.1-0.4-0.2C250.2,53,250.1,52.9,250.1,52.7z"
					/>
			</g>
		</g>
	</g>
	<g>
		<g>
			<path class="st4" d="M0,0h4.8v6.5H0V0z M0,13h4.8v28H0V13z"/>
			<path class="st4" d="M24.1,12.4c2,0,3.9,0.4,5.7,1.1c1.8,0.8,3.3,1.8,4.7,3.1c1.3,1.3,2.4,2.9,3.1,4.6c0.8,1.8,1.1,3.7,1.1,5.7
				v14h-4.8v-14c0-1.3-0.3-2.6-0.8-3.8c-0.5-1.2-1.2-2.2-2.1-3.1c-0.9-0.9-1.9-1.6-3.1-2.1c-1.2-0.5-2.5-0.8-3.9-0.8
				c-1.3,0-2.6,0.3-3.8,0.8S18,19.1,17.1,20c-0.9,0.9-1.6,1.9-2.1,3.1s-0.8,2.5-0.8,3.8v14H9.4v-14c0-2,0.4-3.9,1.1-5.7
				c0.8-1.8,1.8-3.3,3.1-4.6c1.3-1.3,2.9-2.3,4.6-3.1C20.2,12.8,22.1,12.4,24.1,12.4z"/>
			<path class="st4" d="M68.6,13l-12,28h-4.3l-12-28h5.2l9,21c1.5-3.5,3-7,4.5-10.6s3-7.1,4.5-10.5L68.6,13L68.6,13z"/>
			<path class="st4" d="M84,41.7c-2,0-3.9-0.4-5.7-1.1s-3.3-1.8-4.7-3.1c-1.3-1.3-2.4-2.9-3.1-4.6c-0.8-1.8-1.1-3.6-1.1-5.7
				c0-2,0.4-3.9,1.1-5.7c0.8-1.8,1.8-3.3,3.1-4.7c1.3-1.3,2.9-2.3,4.7-3.1s3.7-1.1,5.7-1.1s3.9,0.4,5.7,1.1c1.8,0.8,3.3,1.8,4.6,3.1
				c1.3,1.3,2.3,2.9,3.1,4.7c0.8,1.8,1.1,3.7,1.1,5.7c0,0.3,0,0.5,0,0.8s0,0.8-0.1,1.5H74.6c0.3,1.1,0.7,2.1,1.3,3s1.3,1.7,2.1,2.4
				c0.8,0.7,1.7,1.2,2.8,1.6c1,0.4,2.1,0.6,3.3,0.6c0.9,0,1.8-0.2,2.7-0.7s1.8-1.1,2.6-1.9l3.4,3.4c-1.2,1.2-2.6,2.2-4.1,2.9
				C87.1,41.3,85.6,41.7,84,41.7z M93.5,24.7c-0.3-1-0.7-2-1.3-2.9s-1.3-1.7-2.1-2.4c-0.8-0.7-1.7-1.2-2.8-1.5
				c-1-0.4-2.1-0.6-3.3-0.6s-2.3,0.2-3.3,0.6s-2,0.9-2.8,1.5c-0.8,0.7-1.5,1.4-2.1,2.4c-0.6,0.9-1,1.9-1.3,2.9H93.5z"/>
			<path class="st4" d="M118.7,12.4c2,0,3.9,0.4,5.7,1.1c1.8,0.8,3.3,1.8,4.7,3.1c1.3,1.3,2.4,2.9,3.1,4.6c0.8,1.8,1.1,3.7,1.1,5.7
				v14h-4.8v-14c0-1.3-0.3-2.6-0.8-3.8c-0.5-1.2-1.2-2.2-2.1-3.1s-1.9-1.6-3.1-2.1s-2.5-0.8-3.9-0.8c-1.3,0-2.6,0.3-3.8,0.8
				c-1.2,0.5-2.2,1.2-3.1,2.1s-1.6,1.9-2.1,3.1s-0.8,2.5-0.8,3.8v14H104v-14c0-2,0.4-3.9,1.1-5.7c0.8-1.8,1.8-3.3,3.1-4.6
				c1.3-1.3,2.9-2.3,4.6-3.1C114.8,12.8,116.7,12.4,118.7,12.4z"/>
			<path class="st4" d="M138.6,6.3h4.8v6.8h9.8v4.8h-9.8v15.7c0,0.8,0.3,1.5,0.9,2.1c0.6,0.6,1.3,0.9,2.2,0.9c0.9,0,1.6-0.4,2.2-1.2
				c0.6-0.8,0.9-1.7,0.9-2.9h4.8c0,1.2-0.2,2.4-0.6,3.4c-0.4,1.1-1,2-1.7,2.8c-0.7,0.8-1.5,1.4-2.5,1.9s-2,0.7-3.1,0.7
				s-2.1-0.2-3.1-0.6s-1.8-1-2.5-1.7c-0.7-0.7-1.3-1.5-1.7-2.5c-0.4-0.9-0.6-1.9-0.6-3L138.6,6.3L138.6,6.3z"/>
			<path class="st4" d="M171.1,12.4c2,0,3.9,0.4,5.7,1.1c1.8,0.8,3.3,1.8,4.6,3.1c1.3,1.3,2.4,2.9,3.1,4.6c0.8,1.8,1.1,3.7,1.1,5.7
				s-0.4,3.9-1.1,5.7c-0.8,1.8-1.8,3.3-3.1,4.6c-1.3,1.3-2.9,2.3-4.6,3.1c-1.8,0.8-3.7,1.1-5.7,1.1s-3.9-0.4-5.7-1.1
				c-1.8-0.8-3.3-1.8-4.6-3.1c-1.3-1.3-2.4-2.8-3.1-4.6c-0.8-1.8-1.1-3.7-1.1-5.7s0.4-3.9,1.1-5.7c0.8-1.8,1.8-3.3,3.1-4.6
				c1.3-1.3,2.9-2.3,4.6-3.1C167.2,12.8,169.1,12.4,171.1,12.4z M171.1,17.2c-1.3,0-2.6,0.3-3.8,0.8s-2.2,1.2-3.1,2.1
				c-0.9,0.9-1.6,1.9-2.1,3.1s-0.8,2.5-0.8,3.8s0.3,2.6,0.8,3.8c0.5,1.2,1.2,2.2,2.1,3.1c0.9,0.9,1.9,1.6,3.1,2.1s2.5,0.8,3.8,0.8
				c1.3,0,2.6-0.3,3.8-0.8c1.2-0.5,2.2-1.2,3.1-2.1s1.6-1.9,2.1-3.1s0.8-2.5,0.8-3.8s-0.3-2.6-0.8-3.8c-0.5-1.2-1.2-2.2-2.1-3.1
				s-1.9-1.6-3.1-2.1C173.7,17.5,172.4,17.2,171.1,17.2z"/>
		</g>
		<g>
			<path class="st4" d="M4.3,47.7c0,0.1-0.1,0.1-0.1,0.1s-0.1,0-0.2-0.1c-0.1-0.1-0.2-0.1-0.3-0.2s-0.3-0.1-0.5-0.2
				s-0.4-0.1-0.7-0.1c-0.2,0-0.5,0-0.7,0.1s-0.4,0.2-0.5,0.3C1.2,47.7,1,47.9,1,48c-0.1,0.2-0.1,0.3-0.1,0.5S1,48.9,1.1,49
				c0.1,0.1,0.2,0.3,0.4,0.4s0.4,0.2,0.6,0.3c0.2,0.1,0.4,0.1,0.7,0.2C3,50,3.3,50.1,3.5,50.1c0.2,0.1,0.4,0.2,0.6,0.3
				c0.2,0.1,0.3,0.3,0.4,0.5c0.1,0.2,0.2,0.4,0.2,0.7c0,0.3-0.1,0.6-0.2,0.8C4.4,52.7,4.2,52.9,4,53c-0.2,0.2-0.4,0.3-0.7,0.4
				s-0.6,0.2-1,0.2c-0.5,0-0.9-0.1-1.2-0.2s-0.6-0.3-0.9-0.6l0.2-0.2c0,0,0-0.1,0.1-0.1h0.1c0.1,0,0.1,0,0.2,0.1
				c0.1,0.1,0.2,0.1,0.3,0.2S1.4,53,1.6,53c0.2,0.1,0.5,0.1,0.8,0.1s0.5,0,0.7-0.1s0.4-0.2,0.5-0.3c0.1-0.1,0.3-0.3,0.3-0.5
				C4,52,4,51.8,4,51.6S3.9,51.2,3.8,51c-0.1-0.1-0.2-0.3-0.4-0.4S3,50.4,2.8,50.3c-0.2-0.1-0.4-0.1-0.7-0.2C1.9,50,1.6,50,1.4,49.9
				S1,49.7,0.8,49.6c-0.2-0.1-0.3-0.3-0.4-0.5c-0.1-0.2-0.2-0.4-0.2-0.7c0-0.2,0.1-0.5,0.2-0.7c0.1-0.2,0.2-0.4,0.4-0.6
				s0.4-0.3,0.7-0.4s0.6-0.1,0.9-0.1c0.4,0,0.8,0.1,1.1,0.2s0.6,0.3,0.9,0.5L4.3,47.7z"/>
			<path class="st4" d="M11.7,46.8c0.5,0,0.9,0.1,1.3,0.2c0.4,0.2,0.7,0.4,1,0.7c0.3,0.3,0.5,0.7,0.6,1.1s0.2,0.9,0.2,1.4
				s-0.1,1-0.2,1.4c-0.1,0.4-0.3,0.8-0.6,1.1c-0.3,0.3-0.6,0.5-1,0.7s-0.8,0.2-1.3,0.2s-0.9-0.1-1.3-0.2c-0.4-0.2-0.7-0.4-1-0.7
				c-0.3-0.3-0.5-0.7-0.6-1.1s-0.2-0.9-0.2-1.4s0.1-1,0.2-1.4c0.1-0.4,0.3-0.8,0.6-1.1c0.3-0.3,0.6-0.5,1-0.7
				C10.8,46.9,11.2,46.8,11.7,46.8z M11.7,53.2c0.4,0,0.7-0.1,1-0.2s0.5-0.3,0.7-0.6c0.2-0.3,0.3-0.6,0.4-0.9
				c0.1-0.4,0.1-0.8,0.1-1.2c0-0.4,0-0.8-0.1-1.2s-0.2-0.7-0.4-0.9c-0.2-0.3-0.4-0.5-0.7-0.6s-0.6-0.2-1-0.2s-0.7,0.1-1,0.2
				s-0.5,0.3-0.7,0.6c-0.2,0.3-0.3,0.6-0.4,0.9c-0.1,0.4-0.2,0.8-0.2,1.2c0,0.4,0,0.9,0.2,1.2c0.1,0.4,0.3,0.7,0.4,0.9
				c0.2,0.3,0.4,0.4,0.7,0.6S11.3,53.2,11.7,53.2z"/>
			<path class="st4" d="M19.3,53.6v-6l-0.9-0.1c-0.1,0-0.2-0.1-0.2-0.2V47h1.1v-0.7c0-0.4,0-0.7,0.1-1s0.2-0.5,0.4-0.7
				s0.4-0.3,0.6-0.4c0.3-0.1,0.5-0.1,0.8-0.1c0.1,0,0.3,0,0.4,0s0.3,0.1,0.4,0.1v0.3c0,0.1,0,0.1-0.1,0.1s-0.1,0-0.2,0
				c-0.1,0-0.2,0-0.3,0c-0.2,0-0.4,0-0.6,0.1c-0.2,0.1-0.3,0.2-0.5,0.3c-0.1,0.1-0.2,0.3-0.3,0.6c-0.1,0.2-0.1,0.5-0.1,0.8v0.8h2.2
				v0.5h-2.2v6h-0.6V53.6z"/>
			<path class="st4" d="M27.9,53.7c-0.5,0-0.8-0.1-1.1-0.4c-0.2-0.3-0.4-0.6-0.4-1.2v-4.6h-1h-0.1v-0.1v-0.2l1.1-0.1l0.2-2.4v-0.1
				h0.1H27v2.5h2.1v0.5H27v4.5c0,0.2,0,0.3,0.1,0.5c0,0.1,0.1,0.2,0.2,0.3c0.1,0.1,0.2,0.1,0.3,0.2c0.1,0,0.2,0.1,0.4,0.1
				s0.3,0,0.4-0.1c0.1,0,0.2-0.1,0.3-0.2s0.2-0.1,0.2-0.2c0.1,0,0.1-0.1,0.1-0.1s0.1,0,0.1,0.1l0.2,0.3c-0.2,0.2-0.4,0.3-0.6,0.5
				C28.5,53.6,28.2,53.7,27.9,53.7z"/>
			<path class="st4" d="M32.7,46.9h0.5c0.1,0,0.1,0,0.2,0.1l0.1,0.1l1.7,5.3c0,0.1,0.1,0.2,0.1,0.3c0,0.1,0,0.2,0.1,0.3
				c0-0.1,0-0.2,0.1-0.3c0-0.1,0.1-0.2,0.1-0.3l1.8-5.3c0-0.1,0.1-0.1,0.2-0.1h0.3c0.1,0,0.2,0,0.2,0.1l1.8,5.3
				c0.1,0.2,0.1,0.4,0.2,0.6c0-0.1,0-0.2,0.1-0.3c0-0.1,0-0.2,0.1-0.3l1.7-5.3c0-0.1,0.1-0.2,0.2-0.2h0.5l-2.2,6.7H40
				c-0.1,0-0.1,0-0.2-0.1L38,48.1c0-0.1,0-0.1-0.1-0.2c0-0.1,0-0.1,0-0.2c0,0.1,0,0.1,0,0.2s0,0.1-0.1,0.2L36,53.5
				c0,0.1-0.1,0.1-0.2,0.1h-0.4L32.7,46.9z"/>
			<path class="st4" d="M50.4,53.6c-0.1,0-0.2-0.1-0.2-0.2l-0.1-0.9c-0.2,0.2-0.4,0.3-0.5,0.5c-0.2,0.1-0.4,0.3-0.6,0.4
				c-0.2,0.1-0.4,0.2-0.6,0.2c-0.2,0.1-0.5,0.1-0.8,0.1c-0.2,0-0.4,0-0.7-0.1s-0.4-0.2-0.6-0.3c-0.2-0.1-0.3-0.3-0.4-0.5
				c-0.1-0.2-0.2-0.5-0.2-0.8s0.1-0.5,0.2-0.8c0.2-0.2,0.4-0.5,0.8-0.6c0.3-0.2,0.8-0.3,1.3-0.4s1.2-0.2,1.9-0.2v-0.7
				c0-0.6-0.1-1.1-0.4-1.4c-0.3-0.3-0.7-0.5-1.2-0.5c-0.3,0-0.6,0-0.8,0.1s-0.4,0.2-0.6,0.3c-0.2,0.1-0.3,0.2-0.4,0.3
				c-0.1,0.1-0.2,0.1-0.2,0.1c-0.1,0-0.2,0-0.2-0.1L46,47.9c0.3-0.3,0.7-0.6,1.1-0.8c0.4-0.2,0.8-0.3,1.3-0.3c0.4,0,0.7,0.1,0.9,0.2
				c0.3,0.1,0.5,0.3,0.7,0.5s0.3,0.5,0.4,0.8c0.1,0.3,0.1,0.6,0.1,1L50.4,53.6L50.4,53.6z M47.7,53.2c0.3,0,0.5,0,0.7-0.1
				s0.4-0.1,0.6-0.2c0.2-0.1,0.4-0.2,0.5-0.4c0.2-0.1,0.3-0.3,0.5-0.4v-1.7c-0.6,0-1.2,0.1-1.6,0.1c-0.5,0.1-0.8,0.2-1.1,0.3
				c-0.3,0.1-0.5,0.3-0.7,0.5c-0.1,0.2-0.2,0.4-0.2,0.6s0,0.4,0.1,0.6s0.2,0.3,0.3,0.4s0.3,0.2,0.4,0.2
				C47.4,53.2,47.6,53.2,47.7,53.2z"/>
			<path class="st4" d="M55.4,53.6v-6.7h0.3c0.1,0,0.1,0,0.2,0c0,0,0.1,0.1,0.1,0.2l0.1,1.4c0.2-0.5,0.5-1,0.9-1.3s0.8-0.5,1.3-0.5
				c0.2,0,0.4,0,0.6,0.1c0.2,0,0.3,0.1,0.5,0.2l-0.1,0.4c0,0.1-0.1,0.1-0.1,0.1h-0.1c-0.1,0-0.1,0-0.2-0.1c-0.1,0-0.2,0-0.3-0.1
				c-0.1,0-0.2,0-0.4,0c-0.5,0-0.9,0.2-1.2,0.5s-0.6,0.8-0.8,1.4v4.3L55.4,53.6L55.4,53.6z"/>
			<path class="st4" d="M65.9,46.8c0.4,0,0.7,0.1,1,0.2s0.6,0.3,0.8,0.6c0.2,0.2,0.4,0.6,0.5,0.9c0.1,0.4,0.2,0.8,0.2,1.2
				c0,0.1,0,0.2,0,0.2L68.3,50h-4.8v0.1c0,0.5,0.1,0.9,0.2,1.3c0.1,0.4,0.3,0.7,0.5,1s0.5,0.4,0.8,0.6c0.3,0.1,0.6,0.2,1,0.2
				c0.3,0,0.6,0,0.9-0.1c0.2-0.1,0.5-0.2,0.6-0.2c0.2-0.1,0.3-0.2,0.4-0.2c0.1-0.1,0.2-0.1,0.2-0.1c0.1,0,0.1,0,0.1,0.1l0.2,0.2
				c-0.1,0.1-0.2,0.3-0.4,0.4s-0.4,0.2-0.6,0.3c-0.2,0.1-0.4,0.1-0.7,0.2c-0.2,0-0.5,0.1-0.7,0.1c-0.5,0-0.9-0.1-1.2-0.2
				c-0.4-0.2-0.7-0.4-1-0.7c-0.3-0.3-0.5-0.7-0.6-1.1S63,51,63,50.4c0-0.5,0.1-0.9,0.2-1.3c0.1-0.4,0.3-0.8,0.6-1
				c0.3-0.3,0.6-0.5,0.9-0.7C65,46.9,65.5,46.8,65.9,46.8z M66,47.3c-0.3,0-0.7,0.1-0.9,0.2c-0.3,0.1-0.5,0.3-0.7,0.5
				s-0.4,0.4-0.5,0.7s-0.2,0.6-0.2,0.9h4.4c0-0.4,0-0.7-0.1-1s-0.2-0.5-0.4-0.7s-0.4-0.3-0.6-0.5C66.5,47.3,66.3,47.3,66,47.3z"/>
			<path class="st4" d="M82,47.7c0,0.1-0.1,0.1-0.1,0.1s-0.1,0-0.2-0.1c-0.1-0.1-0.2-0.1-0.3-0.2s-0.3-0.1-0.5-0.2s-0.4-0.1-0.7-0.1
				c-0.2,0-0.5,0-0.7,0.1s-0.4,0.2-0.5,0.3c-0.1,0.1-0.3,0.3-0.3,0.4c-0.1,0.2-0.1,0.3-0.1,0.5s0.1,0.4,0.2,0.5
				c0.1,0.1,0.2,0.3,0.4,0.4s0.4,0.2,0.6,0.3c0.2,0.1,0.4,0.1,0.7,0.2c0.2,0.1,0.5,0.2,0.7,0.2c0.2,0.1,0.4,0.2,0.6,0.3
				c0.2,0.1,0.3,0.3,0.4,0.5c0.1,0.2,0.2,0.4,0.2,0.7c0,0.3-0.1,0.6-0.2,0.8c-0.1,0.3-0.3,0.5-0.5,0.6c-0.2,0.2-0.4,0.3-0.7,0.4
				s-0.6,0.2-1,0.2c-0.5,0-0.9-0.1-1.2-0.2s-0.6-0.3-0.9-0.6l0.2-0.2c0,0,0-0.1,0.1-0.1h0.1c0.1,0,0.1,0,0.2,0.1
				c0.1,0.1,0.2,0.1,0.3,0.2s0.3,0.2,0.5,0.2c0.2,0.1,0.5,0.1,0.8,0.1s0.5,0,0.7-0.1s0.4-0.2,0.5-0.3c0.1-0.1,0.3-0.3,0.3-0.5
				c0.1-0.2,0.1-0.4,0.1-0.6s-0.1-0.4-0.2-0.6c-0.1-0.1-0.2-0.3-0.4-0.4s-0.4-0.2-0.6-0.3c-0.2-0.1-0.4-0.1-0.7-0.2
				c-0.2-0.1-0.5-0.1-0.7-0.2s-0.4-0.2-0.6-0.3c-0.2-0.1-0.3-0.3-0.4-0.5c-0.1-0.2-0.2-0.4-0.2-0.7c0-0.2,0.1-0.5,0.2-0.7
				c0.1-0.2,0.2-0.4,0.4-0.6s0.4-0.3,0.7-0.4s0.6-0.1,0.9-0.1c0.4,0,0.8,0.1,1.1,0.2s0.6,0.3,0.9,0.5L82,47.7z"/>
			<path class="st4" d="M89.3,46.8c0.5,0,0.9,0.1,1.3,0.2c0.4,0.2,0.7,0.4,1,0.7c0.3,0.3,0.5,0.7,0.6,1.1s0.2,0.9,0.2,1.4
				s-0.1,1-0.2,1.4c-0.1,0.4-0.3,0.8-0.6,1.1c-0.3,0.3-0.6,0.5-1,0.7s-0.8,0.2-1.3,0.2s-0.9-0.1-1.3-0.2c-0.4-0.2-0.7-0.4-1-0.7
				c-0.3-0.3-0.5-0.7-0.6-1.1s-0.2-0.9-0.2-1.4s0.1-1,0.2-1.4c0.1-0.4,0.3-0.8,0.6-1.1c0.3-0.3,0.6-0.5,1-0.7
				C88.4,46.9,88.8,46.8,89.3,46.8z M89.3,53.2c0.4,0,0.7-0.1,1-0.2s0.5-0.3,0.7-0.6c0.2-0.3,0.3-0.6,0.4-0.9
				c0.1-0.4,0.1-0.8,0.1-1.2c0-0.4,0-0.8-0.1-1.2s-0.2-0.7-0.4-0.9c-0.2-0.3-0.4-0.5-0.7-0.6s-0.6-0.2-1-0.2s-0.7,0.1-1,0.2
				s-0.5,0.3-0.7,0.6c-0.2,0.3-0.3,0.6-0.4,0.9c-0.1,0.4-0.2,0.8-0.2,1.2c0,0.4,0,0.9,0.2,1.2c0.1,0.4,0.3,0.7,0.4,0.9
				c0.2,0.3,0.4,0.4,0.7,0.6S88.9,53.2,89.3,53.2z"/>
			<path class="st4" d="M97.5,43.8v9.8h-0.6v-9.8H97.5z"/>
			<path class="st4" d="M103.1,46.9v4.3c0,0.6,0.1,1.1,0.4,1.5c0.3,0.4,0.7,0.5,1.3,0.5c0.4,0,0.8-0.1,1.2-0.3
				c0.4-0.2,0.7-0.5,1-0.9v-5h0.6v6.7h-0.4c-0.1,0-0.2-0.1-0.2-0.2l-0.1-1c-0.3,0.4-0.7,0.7-1.1,0.9c-0.4,0.2-0.9,0.3-1.4,0.3
				c-0.4,0-0.7-0.1-1-0.2s-0.5-0.3-0.7-0.5s-0.3-0.5-0.4-0.8c-0.1-0.3-0.1-0.7-0.1-1v-4.3H103.1z"/>
			<path class="st4" d="M114.4,53.7c-0.5,0-0.8-0.1-1.1-0.4c-0.2-0.3-0.4-0.6-0.4-1.2v-4.6h-1h-0.1v-0.1v-0.2l1.1-0.1l0.2-2.4v-0.1
				h0.1h0.3v2.5h2.1v0.5h-2.1v4.5c0,0.2,0,0.3,0.1,0.5c0,0.1,0.1,0.2,0.2,0.3c0.1,0.1,0.2,0.1,0.3,0.2c0.1,0,0.2,0.1,0.4,0.1
				c0.2,0,0.3,0,0.4-0.1c0.1,0,0.2-0.1,0.3-0.2c0.1-0.1,0.2-0.1,0.2-0.2c0.1,0,0.1-0.1,0.1-0.1s0.1,0,0.1,0.1l0.2,0.3
				c-0.2,0.2-0.4,0.3-0.6,0.5C114.9,53.6,114.7,53.7,114.4,53.7z"/>
			<path class="st4" d="M121.2,44.6c0,0.1,0,0.2,0,0.2c0,0.1-0.1,0.1-0.1,0.2c-0.1,0.1-0.1,0.1-0.2,0.1s-0.1,0-0.2,0s-0.2,0-0.2,0
				c-0.1,0-0.1-0.1-0.2-0.1c-0.1-0.1-0.1-0.1-0.1-0.2s0-0.1,0-0.2s0-0.2,0-0.2c0-0.1,0.1-0.1,0.1-0.2c0.1-0.1,0.1-0.1,0.2-0.1
				s0.1,0,0.2,0s0.2,0,0.2,0c0.1,0,0.1,0.1,0.2,0.1c0.1,0.1,0.1,0.1,0.1,0.2C121.1,44.5,121.2,44.5,121.2,44.6z M120.9,46.9v6.7
				h-0.6v-6.7H120.9z"/>
			<path class="st4" d="M128.5,46.8c0.5,0,0.9,0.1,1.3,0.2c0.4,0.2,0.7,0.4,1,0.7c0.3,0.3,0.5,0.7,0.6,1.1s0.2,0.9,0.2,1.4
				s-0.1,1-0.2,1.4s-0.3,0.8-0.6,1.1c-0.3,0.3-0.6,0.5-1,0.7c-0.4,0.2-0.8,0.2-1.3,0.2s-0.9-0.1-1.3-0.2c-0.4-0.2-0.7-0.4-1-0.7
				c-0.3-0.3-0.5-0.7-0.6-1.1s-0.2-0.9-0.2-1.4s0.1-1,0.2-1.4s0.3-0.8,0.6-1.1c0.3-0.3,0.6-0.5,1-0.7
				C127.6,46.9,128,46.8,128.5,46.8z M128.5,53.2c0.4,0,0.7-0.1,1-0.2c0.3-0.1,0.5-0.3,0.7-0.6c0.2-0.3,0.3-0.6,0.4-0.9
				c0.1-0.4,0.1-0.8,0.1-1.2c0-0.4,0-0.8-0.1-1.2s-0.2-0.7-0.4-0.9c-0.2-0.3-0.4-0.5-0.7-0.6c-0.3-0.1-0.6-0.2-1-0.2
				c-0.4,0-0.7,0.1-1,0.2s-0.5,0.3-0.7,0.6c-0.2,0.3-0.3,0.6-0.4,0.9c-0.1,0.4-0.2,0.8-0.2,1.2c0,0.4,0,0.9,0.2,1.2
				c0.1,0.4,0.3,0.7,0.4,0.9c0.2,0.3,0.4,0.4,0.7,0.6S128.1,53.2,128.5,53.2z"/>
			<path class="st4" d="M135.9,53.6v-6.7h0.3c0.1,0,0.2,0.1,0.2,0.2l0.1,1c0.3-0.4,0.7-0.7,1.1-0.9c0.4-0.2,0.9-0.4,1.3-0.4
				s0.7,0.1,1,0.2s0.5,0.3,0.7,0.5s0.3,0.5,0.4,0.8c0.1,0.3,0.1,0.7,0.1,1v4.3h-0.6v-4.3c0-0.6-0.1-1.1-0.4-1.5s-0.7-0.5-1.3-0.5
				c-0.4,0-0.8,0.1-1.2,0.3c-0.4,0.2-0.7,0.5-1,0.9v5L135.9,53.6L135.9,53.6z"/>
			<path class="st4" d="M149.5,47.7C149.5,47.8,149.4,47.8,149.5,47.7c-0.1,0.1-0.2,0.1-0.3,0s-0.2-0.1-0.3-0.2
				c-0.1-0.1-0.3-0.1-0.5-0.2s-0.4-0.1-0.7-0.1c-0.2,0-0.5,0-0.7,0.1s-0.4,0.2-0.5,0.3c-0.1,0.1-0.3,0.3-0.3,0.4
				c-0.1,0.2-0.1,0.3-0.1,0.5s0.1,0.4,0.2,0.5c0.1,0.1,0.2,0.3,0.4,0.4c0.2,0.1,0.4,0.2,0.6,0.3c0.2,0.1,0.4,0.1,0.7,0.2
				c0.2,0.1,0.5,0.2,0.7,0.2c0.2,0.1,0.4,0.2,0.6,0.3c0.2,0.1,0.3,0.3,0.4,0.5c0.1,0.2,0.2,0.4,0.2,0.7c0,0.3-0.1,0.6-0.2,0.8
				c-0.1,0.3-0.3,0.5-0.5,0.6c-0.2,0.2-0.4,0.3-0.7,0.4c-0.3,0.1-0.6,0.2-1,0.2c-0.5,0-0.9-0.1-1.2-0.2c-0.3-0.1-0.6-0.3-0.9-0.6
				l0.2-0.2c0,0,0-0.1,0.1-0.1h0.1c0.1,0,0.1,0,0.2,0.1s0.2,0.1,0.3,0.2c0.1,0.1,0.3,0.2,0.5,0.2c0.2,0.1,0.5,0.1,0.8,0.1
				s0.5,0,0.7-0.1s0.4-0.2,0.5-0.3c0.1-0.1,0.3-0.3,0.3-0.5c0.1-0.2,0.1-0.4,0.1-0.6s-0.1-0.4-0.2-0.6c-0.1-0.1-0.2-0.3-0.4-0.4
				c-0.2-0.1-0.4-0.2-0.6-0.3c-0.2-0.1-0.4-0.1-0.7-0.2c-0.2-0.1-0.5-0.1-0.7-0.2c-0.2-0.1-0.4-0.2-0.6-0.3
				c-0.2-0.1-0.3-0.3-0.4-0.5c-0.1-0.2-0.2-0.4-0.2-0.7c0-0.2,0.1-0.5,0.2-0.7c0.1-0.2,0.2-0.4,0.4-0.6s0.4-0.3,0.7-0.4
				c0.3-0.1,0.6-0.1,0.9-0.1c0.4,0,0.8,0.1,1.1,0.2c0.3,0.1,0.6,0.3,0.9,0.5L149.5,47.7z"/>
			<path class="st4" d="M160.7,44.6c0,0.1,0,0.2,0,0.2c0,0.1-0.1,0.1-0.1,0.2c-0.1,0.1-0.1,0.1-0.2,0.1s-0.1,0-0.2,0s-0.2,0-0.2,0
				c-0.1,0-0.1-0.1-0.2-0.1c-0.1-0.1-0.1-0.1-0.1-0.2s0-0.1,0-0.2s0-0.2,0-0.2c0-0.1,0.1-0.1,0.1-0.2c0.1-0.1,0.1-0.1,0.2-0.1
				s0.1,0,0.2,0s0.2,0,0.2,0c0.1,0,0.1,0.1,0.2,0.1c0.1,0.1,0.1,0.1,0.1,0.2C160.7,44.5,160.7,44.5,160.7,44.6z M160.4,46.9v6.7
				h-0.6v-6.7H160.4z"/>
			<path class="st4" d="M165.5,53.6v-6.7h0.3c0.1,0,0.2,0.1,0.2,0.2l0.1,1c0.3-0.4,0.7-0.7,1.1-0.9c0.4-0.2,0.9-0.4,1.3-0.4
				c0.4,0,0.7,0.1,1,0.2c0.3,0.1,0.5,0.3,0.7,0.5c0.2,0.2,0.3,0.5,0.4,0.8s0.1,0.7,0.1,1v4.3h-0.6v-4.3c0-0.6-0.1-1.1-0.4-1.5
				c-0.3-0.4-0.7-0.5-1.3-0.5c-0.4,0-0.8,0.1-1.2,0.3c-0.4,0.2-0.7,0.5-1,0.9v5L165.5,53.6L165.5,53.6z"/>
			<path class="st4" d="M179.9,47.8C179.8,47.8,179.8,47.8,179.9,47.8c-0.1,0.1-0.1,0.1-0.1,0.1s-0.1,0-0.2-0.1s-0.2-0.1-0.3-0.2
				c-0.1-0.1-0.3-0.1-0.5-0.2s-0.4-0.1-0.7-0.1c-0.4,0-0.7,0.1-1,0.2s-0.5,0.3-0.7,0.6c-0.2,0.3-0.4,0.6-0.5,0.9
				c-0.1,0.4-0.2,0.8-0.2,1.2c0,0.5,0.1,0.9,0.2,1.2c0.1,0.3,0.3,0.7,0.5,0.9c0.2,0.2,0.4,0.4,0.7,0.6c0.3,0.1,0.6,0.2,1,0.2
				c0.3,0,0.6,0,0.8-0.1s0.4-0.2,0.5-0.2c0.1-0.1,0.3-0.2,0.3-0.2c0.1-0.1,0.1-0.1,0.2-0.1c0.1,0,0.1,0,0.1,0.1l0.2,0.2
				c-0.1,0.1-0.2,0.3-0.4,0.4s-0.3,0.2-0.5,0.3c-0.2,0.1-0.4,0.2-0.6,0.2c-0.2,0-0.5,0.1-0.7,0.1c-0.4,0-0.8-0.1-1.2-0.2
				c-0.4-0.2-0.7-0.4-0.9-0.7c-0.3-0.3-0.4-0.7-0.6-1.1c-0.1-0.4-0.2-0.9-0.2-1.4s0.1-1,0.2-1.4c0.1-0.4,0.3-0.8,0.6-1.1
				c0.3-0.3,0.6-0.5,0.9-0.7c0.4-0.2,0.8-0.3,1.3-0.3c0.4,0,0.8,0.1,1.2,0.2s0.6,0.3,0.9,0.6L179.9,47.8z"/>
			<path class="st4" d="M183.9,53.1c0-0.1,0-0.2,0-0.2c0-0.1,0.1-0.1,0.1-0.2c0.1-0.1,0.1-0.1,0.2-0.1c0.1,0,0.2,0,0.2,0
				c0.1,0,0.2,0,0.2,0c0.1,0,0.1,0.1,0.2,0.1c0.1,0.1,0.1,0.1,0.1,0.2s0.1,0.2,0.1,0.2c0,0.1,0,0.2-0.1,0.2c0,0.1-0.1,0.1-0.1,0.2
				c-0.1,0.1-0.1,0.1-0.2,0.1s-0.2,0-0.2,0c-0.2,0-0.3-0.1-0.4-0.2C184,53.4,183.9,53.2,183.9,53.1z"/>
		</g>
	</g>
</g>
</svg>
