<?xml version="1.0" encoding="utf-8"?>
<!-- Generator: Adobe Illustrator 22.1.0, SVG Export Plug-In . SVG Version: 6.00 Build 0)  -->
<svg version="1.1" xmlns="http://www.w3.org/2000/svg" xmlns:xlink="http://www.w3.org/1999/xlink" x="0px" y="0px"
	 viewBox="0 0 251.9 60.9" style="enable-background:new 0 0 251.9 60.9;" xml:space="preserve">
<style type="text/css">
	.st0{fill:url(#SVGID_1_);}
	.st1{fill:#202B2F;}
</style>
<g id="Layer_3">
</g>
<g id="Layer_1">
	<g>
		<g>
			<linearGradient id="SVGID_1_" gradientUnits="userSpaceOnUse" x1="29.3126" y1="59.2918" x2="29.3126" y2="0">
				<stop  offset="0" style="stop-color:#884C9E"/>
				<stop  offset="1" style="stop-color:#BF3B2D"/>
			</linearGradient>
			<path class="st0" d="M58.6,20.7l-7.9,0v-2.4c0-3-0.3-5.6-0.9-7.9c-0.6-2.3-1.6-4.2-3.1-5.8C44,1.5,40.4,0,35.8,0H22.7
				c-2.4,0-4.5,0.4-6.3,1.1C14.6,1.9,13,3,11.6,4.4C9,7.5,7.6,12.1,7.6,18.2v2.5H0l0.4,7h7.2V28c0,10.9,4.1,16.9,12.2,17.9V59
				l6.1,0.2V46.1h6.3V59l6.1,0.2V45.9c3.4-0.5,6.2-1.9,8.3-4.4c2.6-3,4-7.6,4-13.6v-0.4l7.5,0L58.6,20.7z M44.6,28
				c0,7.5-3.1,11.2-9.2,11.2H23.2c-6.1,0-9.2-3.7-9.2-11.2v-9.8C14,10.7,17.1,7,23.2,7h12.2c6.1,0,9.2,3.7,9.2,11.1V28z"/>
			<circle class="st1" cx="24.8" cy="22.6" r="1.8"/>
			<circle class="st1" cx="33.6" cy="22.6" r="3.1"/>
		</g>
		<g>
			<g>
				<path class="st1" d="M66.2,6.6H71v6.5h-4.8V6.6z M66.2,19.6H71v28h-4.8V19.6z"/>
				<path class="st1" d="M90.3,19c2,0,3.9,0.4,5.7,1.1c1.8,0.8,3.3,1.8,4.7,3.1c1.3,1.3,2.4,2.9,3.1,4.6c0.8,1.8,1.1,3.7,1.1,5.7v14
					h-4.8v-14c0-1.3-0.3-2.6-0.8-3.8c-0.5-1.2-1.2-2.2-2.1-3.1c-0.9-0.9-1.9-1.6-3.1-2.1c-1.2-0.5-2.5-0.8-3.9-0.8
					c-1.3,0-2.6,0.3-3.8,0.8c-1.2,0.5-2.2,1.2-3.1,2.1c-0.9,0.9-1.6,1.9-2.1,3.1c-0.5,1.2-0.8,2.5-0.8,3.8v14h-4.8v-14
					c0-2,0.4-3.9,1.1-5.7c0.8-1.8,1.8-3.3,3.1-4.6c1.3-1.3,2.9-2.3,4.6-3.1C86.4,19.4,88.3,19,90.3,19z"/>
				<path class="st1" d="M134.8,19.6l-12,28h-4.3l-12-28h5.2l9,21c1.5-3.5,3-7,4.5-10.6c1.5-3.6,3-7.1,4.5-10.5H134.8z"/>
				<path class="st1" d="M150.2,48.3c-2,0-3.9-0.4-5.7-1.1c-1.8-0.8-3.3-1.8-4.7-3.1c-1.3-1.3-2.4-2.9-3.1-4.6
					c-0.8-1.8-1.1-3.6-1.1-5.7c0-2,0.4-3.9,1.1-5.7c0.8-1.8,1.8-3.3,3.1-4.7c1.3-1.3,2.9-2.3,4.7-3.1c1.8-0.8,3.7-1.1,5.7-1.1
					c2,0,3.9,0.4,5.7,1.1c1.8,0.8,3.3,1.8,4.6,3.1c1.3,1.3,2.3,2.9,3.1,4.7c0.8,1.8,1.1,3.7,1.1,5.7c0,0.3,0,0.5,0,0.8
					s0,0.8-0.1,1.5h-23.9c0.3,1.1,0.7,2.1,1.3,3c0.6,0.9,1.3,1.7,2.1,2.4c0.8,0.7,1.7,1.2,2.8,1.6c1,0.4,2.1,0.6,3.3,0.6
					c0.9,0,1.8-0.2,2.7-0.7c0.9-0.5,1.8-1.1,2.6-1.9l3.4,3.4c-1.2,1.2-2.6,2.2-4.1,2.9C153.3,48,151.8,48.3,150.2,48.3z M159.7,31.4
					c-0.3-1-0.7-2-1.3-2.9c-0.6-0.9-1.3-1.7-2.1-2.4c-0.8-0.7-1.7-1.2-2.8-1.5c-1-0.4-2.1-0.6-3.3-0.6c-1.2,0-2.3,0.2-3.3,0.6
					c-1,0.4-2,0.9-2.8,1.5c-0.8,0.7-1.5,1.4-2.1,2.4c-0.6,0.9-1,1.9-1.3,2.9H159.7z"/>
				<path class="st1" d="M184.9,19c2,0,3.9,0.4,5.7,1.1c1.8,0.8,3.3,1.8,4.7,3.1s2.4,2.9,3.1,4.6c0.8,1.8,1.1,3.7,1.1,5.7v14h-4.8
					v-14c0-1.3-0.3-2.6-0.8-3.8c-0.5-1.2-1.2-2.2-2.1-3.1c-0.9-0.9-1.9-1.6-3.1-2.1c-1.2-0.5-2.5-0.8-3.9-0.8
					c-1.3,0-2.6,0.3-3.8,0.8c-1.2,0.5-2.2,1.2-3.1,2.1c-0.9,0.9-1.6,1.9-2.1,3.1c-0.5,1.2-0.8,2.5-0.8,3.8v14h-4.8v-14
					c0-2,0.4-3.9,1.1-5.7c0.8-1.8,1.8-3.3,3.1-4.6c1.3-1.3,2.9-2.3,4.6-3.1C181,19.4,182.9,19,184.9,19z"/>
				<path class="st1" d="M204.8,12.9h4.8v6.8h9.8v4.8h-9.8v15.7c0,0.8,0.3,1.5,0.9,2.1c0.6,0.6,1.3,0.9,2.2,0.9s1.6-0.4,2.2-1.2
					c0.6-0.8,0.9-1.7,0.9-2.9h4.8c0,1.2-0.2,2.4-0.6,3.4c-0.4,1.1-1,2-1.7,2.8c-0.7,0.8-1.5,1.4-2.5,1.9c-1,0.5-2,0.7-3.1,0.7
					c-1.1,0-2.1-0.2-3.1-0.6c-1-0.4-1.8-1-2.5-1.7c-0.7-0.7-1.3-1.5-1.7-2.5c-0.4-0.9-0.6-1.9-0.6-3V12.9z"/>
				<path class="st1" d="M237.3,19c2,0,3.9,0.4,5.7,1.1c1.8,0.8,3.3,1.8,4.6,3.1s2.4,2.9,3.1,4.6c0.8,1.8,1.1,3.7,1.1,5.7
					c0,2-0.4,3.9-1.1,5.7c-0.8,1.8-1.8,3.3-3.1,4.6c-1.3,1.3-2.9,2.3-4.6,3.1c-1.8,0.8-3.7,1.1-5.7,1.1c-2,0-3.9-0.4-5.7-1.1
					c-1.8-0.8-3.3-1.8-4.6-3.1c-1.3-1.3-2.4-2.8-3.1-4.6c-0.8-1.8-1.1-3.7-1.1-5.7c0-2,0.4-3.9,1.1-5.7c0.8-1.8,1.8-3.3,3.1-4.6
					c1.3-1.3,2.9-2.3,4.6-3.1C233.4,19.4,235.3,19,237.3,19z M237.3,23.8c-1.3,0-2.6,0.3-3.8,0.8c-1.2,0.5-2.2,1.2-3.1,2.1
					c-0.9,0.9-1.6,1.9-2.1,3.1c-0.5,1.2-0.8,2.5-0.8,3.8c0,1.3,0.3,2.6,0.8,3.8c0.5,1.2,1.2,2.2,2.1,3.1c0.9,0.9,1.9,1.6,3.1,2.1
					c1.2,0.5,2.5,0.8,3.8,0.8c1.3,0,2.6-0.3,3.8-0.8c1.2-0.5,2.2-1.2,3.1-2.1c0.9-0.9,1.6-1.9,2.1-3.1c0.5-1.2,0.8-2.5,0.8-3.8
					c0-1.3-0.3-2.6-0.8-3.8c-0.5-1.2-1.2-2.2-2.1-3.1c-0.9-0.9-1.9-1.6-3.1-2.1C239.9,24.1,238.7,23.8,237.3,23.8z"/>
			</g>
			<g>
				<path class="st1" d="M70.5,54.4c0,0.1-0.1,0.1-0.1,0.1c0,0-0.1,0-0.2-0.1c-0.1-0.1-0.2-0.1-0.3-0.2c-0.1-0.1-0.3-0.1-0.5-0.2
					c-0.2-0.1-0.4-0.1-0.7-0.1c-0.2,0-0.5,0-0.7,0.1c-0.2,0.1-0.4,0.2-0.5,0.3c-0.1,0.1-0.3,0.3-0.3,0.4c-0.1,0.2-0.1,0.3-0.1,0.5
					c0,0.2,0.1,0.4,0.2,0.5c0.1,0.1,0.2,0.3,0.4,0.4c0.2,0.1,0.4,0.2,0.6,0.3c0.2,0.1,0.4,0.1,0.7,0.2c0.2,0.1,0.5,0.2,0.7,0.2
					c0.2,0.1,0.4,0.2,0.6,0.3c0.2,0.1,0.3,0.3,0.4,0.5c0.1,0.2,0.2,0.4,0.2,0.7c0,0.3-0.1,0.6-0.2,0.8c-0.1,0.3-0.3,0.5-0.5,0.6
					c-0.2,0.2-0.4,0.3-0.7,0.4c-0.3,0.1-0.6,0.2-1,0.2c-0.5,0-0.9-0.1-1.2-0.2c-0.3-0.1-0.6-0.3-0.9-0.6l0.2-0.2c0,0,0-0.1,0.1-0.1
					c0,0,0.1,0,0.1,0c0.1,0,0.1,0,0.2,0.1c0.1,0.1,0.2,0.1,0.3,0.2c0.1,0.1,0.3,0.2,0.5,0.2c0.2,0.1,0.5,0.1,0.8,0.1
					c0.3,0,0.5,0,0.7-0.1c0.2-0.1,0.4-0.2,0.5-0.3c0.1-0.1,0.3-0.3,0.3-0.5c0.1-0.2,0.1-0.4,0.1-0.6c0-0.2-0.1-0.4-0.2-0.6
					c-0.1-0.1-0.2-0.3-0.4-0.4c-0.2-0.1-0.4-0.2-0.6-0.3c-0.2-0.1-0.4-0.1-0.7-0.2c-0.2-0.1-0.5-0.1-0.7-0.2
					c-0.2-0.1-0.4-0.2-0.6-0.3c-0.2-0.1-0.3-0.3-0.4-0.5c-0.1-0.2-0.2-0.4-0.2-0.7c0-0.2,0.1-0.5,0.2-0.7c0.1-0.2,0.2-0.4,0.4-0.6
					c0.2-0.2,0.4-0.3,0.7-0.4c0.3-0.1,0.6-0.1,0.9-0.1c0.4,0,0.8,0.1,1.1,0.2c0.3,0.1,0.6,0.3,0.9,0.5L70.5,54.4z"/>
				<path class="st1" d="M77.9,53.4c0.5,0,0.9,0.1,1.3,0.2c0.4,0.2,0.7,0.4,1,0.7s0.5,0.7,0.6,1.1c0.1,0.4,0.2,0.9,0.2,1.4
					c0,0.5-0.1,1-0.2,1.4c-0.1,0.4-0.3,0.8-0.6,1.1s-0.6,0.5-1,0.7c-0.4,0.2-0.8,0.2-1.3,0.2c-0.5,0-0.9-0.1-1.3-0.2
					c-0.4-0.2-0.7-0.4-1-0.7s-0.5-0.7-0.6-1.1c-0.1-0.4-0.2-0.9-0.2-1.4c0-0.5,0.1-1,0.2-1.4c0.1-0.4,0.3-0.8,0.6-1.1s0.6-0.5,1-0.7
					C77,53.5,77.4,53.4,77.9,53.4z M77.9,59.8c0.4,0,0.7-0.1,1-0.2c0.3-0.1,0.5-0.3,0.7-0.6c0.2-0.3,0.3-0.6,0.4-0.9
					c0.1-0.4,0.1-0.8,0.1-1.2c0-0.4,0-0.8-0.1-1.2c-0.1-0.4-0.2-0.7-0.4-0.9c-0.2-0.3-0.4-0.5-0.7-0.6c-0.3-0.1-0.6-0.2-1-0.2
					s-0.7,0.1-1,0.2c-0.3,0.1-0.5,0.3-0.7,0.6c-0.2,0.3-0.3,0.6-0.4,0.9c-0.1,0.4-0.2,0.8-0.2,1.2c0,0.4,0,0.9,0.2,1.2
					c0.1,0.4,0.3,0.7,0.4,0.9c0.2,0.3,0.4,0.4,0.7,0.6C77.1,59.7,77.5,59.8,77.9,59.8z"/>
				<path class="st1" d="M85.6,60.2v-6l-0.9-0.1c-0.1,0-0.2-0.1-0.2-0.2v-0.3h1.1v-0.8c0-0.4,0-0.7,0.1-1c0.1-0.3,0.2-0.5,0.4-0.7
					c0.2-0.2,0.4-0.3,0.6-0.4c0.3-0.1,0.5-0.1,0.8-0.1c0.1,0,0.3,0,0.4,0c0.1,0,0.3,0.1,0.4,0.1l0,0.3c0,0.1,0,0.1-0.1,0.1
					c-0.1,0-0.1,0-0.2,0c-0.1,0-0.2,0-0.3,0c-0.2,0-0.4,0-0.6,0.1c-0.2,0.1-0.3,0.2-0.5,0.3c-0.1,0.1-0.2,0.3-0.3,0.6
					c-0.1,0.2-0.1,0.5-0.1,0.8v0.8h2.2v0.5h-2.2v6H85.6z"/>
				<path class="st1" d="M94.1,60.3c-0.5,0-0.8-0.1-1.1-0.4c-0.2-0.3-0.4-0.6-0.4-1.2v-4.6h-1c0,0-0.1,0-0.1,0c0,0,0-0.1,0-0.1v-0.2
					l1.1-0.1l0.2-2.4c0,0,0-0.1,0-0.1c0,0,0.1,0,0.1,0h0.3v2.5h2.1v0.5h-2.1v4.5c0,0.2,0,0.3,0.1,0.5c0,0.1,0.1,0.2,0.2,0.3
					c0.1,0.1,0.2,0.1,0.3,0.2c0.1,0,0.2,0.1,0.4,0.1c0.2,0,0.3,0,0.4-0.1c0.1,0,0.2-0.1,0.3-0.2c0.1-0.1,0.2-0.1,0.2-0.2
					c0.1,0,0.1-0.1,0.1-0.1c0,0,0.1,0,0.1,0.1l0.2,0.3c-0.2,0.2-0.4,0.3-0.6,0.5C94.7,60.3,94.4,60.3,94.1,60.3z"/>
				<path class="st1" d="M98.9,53.6h0.5c0.1,0,0.1,0,0.2,0.1c0,0,0.1,0.1,0.1,0.1l1.7,5.3c0,0.1,0.1,0.2,0.1,0.3
					c0,0.1,0,0.2,0.1,0.3c0-0.1,0-0.2,0.1-0.3c0-0.1,0.1-0.2,0.1-0.3l1.8-5.3c0-0.1,0.1-0.1,0.2-0.1h0.3c0.1,0,0.2,0,0.2,0.1
					l1.8,5.3c0.1,0.2,0.1,0.4,0.2,0.6c0-0.1,0-0.2,0.1-0.3c0-0.1,0-0.2,0.1-0.3l1.7-5.3c0-0.1,0.1-0.2,0.2-0.2h0.5l-2.2,6.7h-0.5
					c-0.1,0-0.1,0-0.2-0.1l-1.8-5.4c0-0.1,0-0.1-0.1-0.2c0-0.1,0-0.1,0-0.2c0,0.1,0,0.1,0,0.2c0,0.1,0,0.1-0.1,0.2l-1.8,5.4
					c0,0.1-0.1,0.1-0.2,0.1h-0.4L98.9,53.6z"/>
				<path class="st1" d="M116.7,60.2c-0.1,0-0.2-0.1-0.2-0.2l-0.1-0.9c-0.2,0.2-0.4,0.3-0.5,0.5c-0.2,0.1-0.4,0.3-0.6,0.4
					c-0.2,0.1-0.4,0.2-0.6,0.2c-0.2,0.1-0.5,0.1-0.8,0.1c-0.2,0-0.4,0-0.7-0.1c-0.2-0.1-0.4-0.2-0.6-0.3c-0.2-0.1-0.3-0.3-0.4-0.5
					c-0.1-0.2-0.2-0.5-0.2-0.8c0-0.3,0.1-0.5,0.2-0.8c0.2-0.2,0.4-0.5,0.8-0.6c0.3-0.2,0.8-0.3,1.3-0.4c0.5-0.1,1.2-0.2,1.9-0.2
					v-0.7c0-0.6-0.1-1.1-0.4-1.4c-0.3-0.3-0.7-0.5-1.2-0.5c-0.3,0-0.6,0-0.8,0.1c-0.2,0.1-0.4,0.2-0.6,0.3c-0.2,0.1-0.3,0.2-0.4,0.3
					c-0.1,0.1-0.2,0.1-0.2,0.1c-0.1,0-0.2,0-0.2-0.1l-0.1-0.2c0.3-0.3,0.7-0.6,1.1-0.8c0.4-0.2,0.8-0.3,1.3-0.3
					c0.4,0,0.7,0.1,0.9,0.2c0.3,0.1,0.5,0.3,0.7,0.5c0.2,0.2,0.3,0.5,0.4,0.8c0.1,0.3,0.1,0.6,0.1,1v4.3H116.7z M114,59.9
					c0.3,0,0.5,0,0.7-0.1c0.2-0.1,0.4-0.1,0.6-0.2c0.2-0.1,0.4-0.2,0.5-0.4c0.2-0.1,0.3-0.3,0.5-0.4V57c-0.6,0-1.2,0.1-1.6,0.1
					s-0.8,0.2-1.1,0.3c-0.3,0.1-0.5,0.3-0.7,0.5c-0.1,0.2-0.2,0.4-0.2,0.6c0,0.2,0,0.4,0.1,0.6c0.1,0.2,0.2,0.3,0.3,0.4
					c0.1,0.1,0.3,0.2,0.4,0.2C113.6,59.8,113.8,59.9,114,59.9z"/>
				<path class="st1" d="M121.6,60.2v-6.7h0.3c0.1,0,0.1,0,0.2,0c0,0,0.1,0.1,0.1,0.2l0.1,1.4c0.2-0.5,0.5-1,0.9-1.3
					c0.4-0.3,0.8-0.5,1.3-0.5c0.2,0,0.4,0,0.6,0.1c0.2,0,0.3,0.1,0.5,0.2l-0.1,0.4c0,0.1-0.1,0.1-0.1,0.1c0,0-0.1,0-0.1,0
					c-0.1,0-0.1,0-0.2-0.1c-0.1,0-0.2,0-0.3-0.1c-0.1,0-0.2,0-0.4,0c-0.5,0-0.9,0.2-1.2,0.5c-0.3,0.3-0.6,0.8-0.8,1.4v4.3H121.6z"/>
				<path class="st1" d="M132.2,53.4c0.4,0,0.7,0.1,1,0.2c0.3,0.1,0.6,0.3,0.8,0.6c0.2,0.2,0.4,0.6,0.5,0.9c0.1,0.4,0.2,0.8,0.2,1.2
					c0,0.1,0,0.2,0,0.2c0,0-0.1,0.1-0.1,0.1h-4.8v0.1c0,0.5,0.1,0.9,0.2,1.3c0.1,0.4,0.3,0.7,0.5,1c0.2,0.3,0.5,0.4,0.8,0.6
					c0.3,0.1,0.6,0.2,1,0.2c0.3,0,0.6,0,0.9-0.1c0.2-0.1,0.5-0.2,0.6-0.2c0.2-0.1,0.3-0.2,0.4-0.2c0.1-0.1,0.2-0.1,0.2-0.1
					c0.1,0,0.1,0,0.1,0.1l0.2,0.2c-0.1,0.1-0.2,0.3-0.4,0.4c-0.2,0.1-0.4,0.2-0.6,0.3c-0.2,0.1-0.4,0.1-0.7,0.2
					c-0.2,0-0.5,0.1-0.7,0.1c-0.5,0-0.9-0.1-1.2-0.2c-0.4-0.2-0.7-0.4-1-0.7c-0.3-0.3-0.5-0.7-0.6-1.1c-0.1-0.4-0.2-0.9-0.2-1.5
					c0-0.5,0.1-0.9,0.2-1.3c0.1-0.4,0.3-0.8,0.6-1c0.3-0.3,0.6-0.5,0.9-0.7C131.3,53.5,131.7,53.4,132.2,53.4z M132.2,53.9
					c-0.3,0-0.7,0.1-0.9,0.2c-0.3,0.1-0.5,0.3-0.7,0.5c-0.2,0.2-0.4,0.4-0.5,0.7c-0.1,0.3-0.2,0.6-0.2,0.9h4.4c0-0.4,0-0.7-0.1-1
					c-0.1-0.3-0.2-0.5-0.4-0.7c-0.2-0.2-0.4-0.3-0.6-0.5C132.8,54,132.5,53.9,132.2,53.9z"/>
				<path class="st1" d="M148.2,54.4c0,0.1-0.1,0.1-0.1,0.1c0,0-0.1,0-0.2-0.1c-0.1-0.1-0.2-0.1-0.3-0.2c-0.1-0.1-0.3-0.1-0.5-0.2
					c-0.2-0.1-0.4-0.1-0.7-0.1c-0.2,0-0.5,0-0.7,0.1c-0.2,0.1-0.4,0.2-0.5,0.3c-0.1,0.1-0.3,0.3-0.3,0.4c-0.1,0.2-0.1,0.3-0.1,0.5
					c0,0.2,0.1,0.4,0.2,0.5c0.1,0.1,0.2,0.3,0.4,0.4c0.2,0.1,0.4,0.2,0.6,0.3c0.2,0.1,0.4,0.1,0.7,0.2c0.2,0.1,0.5,0.2,0.7,0.2
					c0.2,0.1,0.4,0.2,0.6,0.3c0.2,0.1,0.3,0.3,0.4,0.5c0.1,0.2,0.2,0.4,0.2,0.7c0,0.3-0.1,0.6-0.2,0.8c-0.1,0.3-0.3,0.5-0.5,0.6
					c-0.2,0.2-0.4,0.3-0.7,0.4c-0.3,0.1-0.6,0.2-1,0.2c-0.5,0-0.9-0.1-1.2-0.2c-0.3-0.1-0.6-0.3-0.9-0.6l0.2-0.2c0,0,0-0.1,0.1-0.1
					c0,0,0.1,0,0.1,0c0.1,0,0.1,0,0.2,0.1c0.1,0.1,0.2,0.1,0.3,0.2c0.1,0.1,0.3,0.2,0.5,0.2c0.2,0.1,0.5,0.1,0.8,0.1
					c0.3,0,0.5,0,0.7-0.1c0.2-0.1,0.4-0.2,0.5-0.3c0.1-0.1,0.3-0.3,0.3-0.5c0.1-0.2,0.1-0.4,0.1-0.6c0-0.2-0.1-0.4-0.2-0.6
					c-0.1-0.1-0.2-0.3-0.4-0.4c-0.2-0.1-0.4-0.2-0.6-0.3c-0.2-0.1-0.4-0.1-0.7-0.2c-0.2-0.1-0.5-0.1-0.7-0.2
					c-0.2-0.1-0.4-0.2-0.6-0.3c-0.2-0.1-0.3-0.3-0.4-0.5c-0.1-0.2-0.2-0.4-0.2-0.7c0-0.2,0.1-0.5,0.2-0.7c0.1-0.2,0.2-0.4,0.4-0.6
					c0.2-0.2,0.4-0.3,0.7-0.4c0.3-0.1,0.6-0.1,0.9-0.1c0.4,0,0.8,0.1,1.1,0.2c0.3,0.1,0.6,0.3,0.9,0.5L148.2,54.4z"/>
				<path class="st1" d="M155.5,53.4c0.5,0,0.9,0.1,1.3,0.2c0.4,0.2,0.7,0.4,1,0.7c0.3,0.3,0.5,0.7,0.6,1.1c0.1,0.4,0.2,0.9,0.2,1.4
					c0,0.5-0.1,1-0.2,1.4c-0.1,0.4-0.3,0.8-0.6,1.1c-0.3,0.3-0.6,0.5-1,0.7c-0.4,0.2-0.8,0.2-1.3,0.2c-0.5,0-0.9-0.1-1.3-0.2
					c-0.4-0.2-0.7-0.4-1-0.7c-0.3-0.3-0.5-0.7-0.6-1.1c-0.1-0.4-0.2-0.9-0.2-1.4c0-0.5,0.1-1,0.2-1.4c0.1-0.4,0.3-0.8,0.6-1.1
					c0.3-0.3,0.6-0.5,1-0.7C154.6,53.5,155,53.4,155.5,53.4z M155.5,59.8c0.4,0,0.7-0.1,1-0.2c0.3-0.1,0.5-0.3,0.7-0.6
					c0.2-0.3,0.3-0.6,0.4-0.9c0.1-0.4,0.1-0.8,0.1-1.2c0-0.4,0-0.8-0.1-1.2s-0.2-0.7-0.4-0.9c-0.2-0.3-0.4-0.5-0.7-0.6
					c-0.3-0.1-0.6-0.2-1-0.2s-0.7,0.1-1,0.2c-0.3,0.1-0.5,0.3-0.7,0.6c-0.2,0.3-0.3,0.6-0.4,0.9c-0.1,0.4-0.2,0.8-0.2,1.2
					c0,0.4,0,0.9,0.2,1.2c0.1,0.4,0.3,0.7,0.4,0.9c0.2,0.3,0.4,0.4,0.7,0.6C154.8,59.7,155.1,59.8,155.5,59.8z"/>
				<path class="st1" d="M163.8,50.5v9.8h-0.6v-9.8H163.8z"/>
				<path class="st1" d="M169.3,53.6v4.3c0,0.6,0.1,1.1,0.4,1.5c0.3,0.4,0.7,0.5,1.3,0.5c0.4,0,0.8-0.1,1.2-0.3
					c0.4-0.2,0.7-0.5,1-0.9v-5h0.6v6.7h-0.4c-0.1,0-0.2-0.1-0.2-0.2l-0.1-1c-0.3,0.4-0.7,0.7-1.1,0.9c-0.4,0.2-0.9,0.3-1.4,0.3
					c-0.4,0-0.7-0.1-1-0.2c-0.3-0.1-0.5-0.3-0.7-0.5c-0.2-0.2-0.3-0.5-0.4-0.8c-0.1-0.3-0.1-0.7-0.1-1v-4.3H169.3z"/>
				<path class="st1" d="M180.6,60.3c-0.5,0-0.8-0.1-1.1-0.4c-0.2-0.3-0.4-0.6-0.4-1.2v-4.6h-1c0,0-0.1,0-0.1,0c0,0,0-0.1,0-0.1
					v-0.2l1.1-0.1l0.2-2.4c0,0,0-0.1,0-0.1c0,0,0.1,0,0.1,0h0.3v2.5h2.1v0.5h-2.1v4.5c0,0.2,0,0.3,0.1,0.5c0,0.1,0.1,0.2,0.2,0.3
					c0.1,0.1,0.2,0.1,0.3,0.2c0.1,0,0.2,0.1,0.4,0.1c0.2,0,0.3,0,0.4-0.1c0.1,0,0.2-0.1,0.3-0.2c0.1-0.1,0.2-0.1,0.2-0.2
					c0.1,0,0.1-0.1,0.1-0.1c0,0,0.1,0,0.1,0.1l0.2,0.3c-0.2,0.2-0.4,0.3-0.6,0.5C181.2,60.3,180.9,60.3,180.6,60.3z"/>
				<path class="st1" d="M187.4,51.3c0,0.1,0,0.2,0,0.2c0,0.1-0.1,0.1-0.1,0.2c-0.1,0.1-0.1,0.1-0.2,0.1c-0.1,0-0.1,0-0.2,0
					s-0.2,0-0.2,0c-0.1,0-0.1-0.1-0.2-0.1c-0.1-0.1-0.1-0.1-0.1-0.2c0-0.1,0-0.1,0-0.2c0-0.1,0-0.2,0-0.2c0-0.1,0.1-0.1,0.1-0.2
					c0.1-0.1,0.1-0.1,0.2-0.1c0.1,0,0.1,0,0.2,0s0.2,0,0.2,0c0.1,0,0.1,0.1,0.2,0.1c0.1,0.1,0.1,0.1,0.1,0.2
					C187.4,51.1,187.4,51.2,187.4,51.3z M187.1,53.6v6.7h-0.6v-6.7H187.1z"/>
				<path class="st1" d="M194.7,53.4c0.5,0,0.9,0.1,1.3,0.2c0.4,0.2,0.7,0.4,1,0.7c0.3,0.3,0.5,0.7,0.6,1.1c0.1,0.4,0.2,0.9,0.2,1.4
					c0,0.5-0.1,1-0.2,1.4c-0.1,0.4-0.3,0.8-0.6,1.1c-0.3,0.3-0.6,0.5-1,0.7c-0.4,0.2-0.8,0.2-1.3,0.2s-0.9-0.1-1.3-0.2
					c-0.4-0.2-0.7-0.4-1-0.7s-0.5-0.7-0.6-1.1c-0.1-0.4-0.2-0.9-0.2-1.4c0-0.5,0.1-1,0.2-1.4c0.1-0.4,0.3-0.8,0.6-1.1s0.6-0.5,1-0.7
					C193.8,53.5,194.2,53.4,194.7,53.4z M194.7,59.8c0.4,0,0.7-0.1,1-0.2c0.3-0.1,0.5-0.3,0.7-0.6c0.2-0.3,0.3-0.6,0.4-0.9
					c0.1-0.4,0.1-0.8,0.1-1.2c0-0.4,0-0.8-0.1-1.2c-0.1-0.4-0.2-0.7-0.4-0.9c-0.2-0.3-0.4-0.5-0.7-0.6c-0.3-0.1-0.6-0.2-1-0.2
					s-0.7,0.1-1,0.2c-0.3,0.1-0.5,0.3-0.7,0.6c-0.2,0.3-0.3,0.6-0.4,0.9c-0.1,0.4-0.2,0.8-0.2,1.2c0,0.4,0,0.9,0.2,1.2
					c0.1,0.4,0.3,0.7,0.4,0.9c0.2,0.3,0.4,0.4,0.7,0.6C194,59.7,194.3,59.8,194.7,59.8z"/>
				<path class="st1" d="M202.1,60.2v-6.7h0.3c0.1,0,0.2,0.1,0.2,0.2l0.1,1c0.3-0.4,0.7-0.7,1.1-0.9c0.4-0.2,0.9-0.4,1.3-0.4
					c0.4,0,0.7,0.1,1,0.2c0.3,0.1,0.5,0.3,0.7,0.5c0.2,0.2,0.3,0.5,0.4,0.8c0.1,0.3,0.1,0.7,0.1,1v4.3h-0.6V56
					c0-0.6-0.1-1.1-0.4-1.5c-0.3-0.4-0.7-0.5-1.3-0.5c-0.4,0-0.8,0.1-1.2,0.3c-0.4,0.2-0.7,0.5-1,0.9v5H202.1z"/>
				<path class="st1" d="M215.8,54.4c0,0.1-0.1,0.1-0.1,0.1c0,0-0.1,0-0.2-0.1c-0.1-0.1-0.2-0.1-0.3-0.2c-0.1-0.1-0.3-0.1-0.5-0.2
					c-0.2-0.1-0.4-0.1-0.7-0.1c-0.2,0-0.5,0-0.7,0.1c-0.2,0.1-0.4,0.2-0.5,0.3s-0.3,0.3-0.3,0.4c-0.1,0.2-0.1,0.3-0.1,0.5
					c0,0.2,0.1,0.4,0.2,0.5c0.1,0.1,0.2,0.3,0.4,0.4c0.2,0.1,0.4,0.2,0.6,0.3c0.2,0.1,0.4,0.1,0.7,0.2c0.2,0.1,0.5,0.2,0.7,0.2
					c0.2,0.1,0.4,0.2,0.6,0.3c0.2,0.1,0.3,0.3,0.4,0.5c0.1,0.2,0.2,0.4,0.2,0.7c0,0.3-0.1,0.6-0.2,0.8s-0.3,0.5-0.5,0.6
					c-0.2,0.2-0.4,0.3-0.7,0.4c-0.3,0.1-0.6,0.2-1,0.2c-0.5,0-0.9-0.1-1.2-0.2c-0.3-0.1-0.6-0.3-0.9-0.6l0.2-0.2c0,0,0-0.1,0.1-0.1
					c0,0,0.1,0,0.1,0c0.1,0,0.1,0,0.2,0.1c0.1,0.1,0.2,0.1,0.3,0.2c0.1,0.1,0.3,0.2,0.5,0.2c0.2,0.1,0.5,0.1,0.8,0.1
					c0.3,0,0.5,0,0.7-0.1c0.2-0.1,0.4-0.2,0.5-0.3c0.1-0.1,0.3-0.3,0.3-0.5c0.1-0.2,0.1-0.4,0.1-0.6c0-0.2-0.1-0.4-0.2-0.6
					c-0.1-0.1-0.2-0.3-0.4-0.4c-0.2-0.1-0.4-0.2-0.6-0.3c-0.2-0.1-0.4-0.1-0.7-0.2c-0.2-0.1-0.5-0.1-0.7-0.2
					c-0.2-0.1-0.4-0.2-0.6-0.3c-0.2-0.1-0.3-0.3-0.4-0.5c-0.1-0.2-0.2-0.4-0.2-0.7c0-0.2,0.1-0.5,0.2-0.7c0.1-0.2,0.2-0.4,0.4-0.6
					c0.2-0.2,0.4-0.3,0.7-0.4c0.3-0.1,0.6-0.1,0.9-0.1c0.4,0,0.8,0.1,1.1,0.2c0.3,0.1,0.6,0.3,0.9,0.5L215.8,54.4z"/>
				<path class="st1" d="M227,51.3c0,0.1,0,0.2,0,0.2c0,0.1-0.1,0.1-0.1,0.2c-0.1,0.1-0.1,0.1-0.2,0.1c-0.1,0-0.1,0-0.2,0
					c-0.1,0-0.2,0-0.2,0c-0.1,0-0.1-0.1-0.2-0.1c-0.1-0.1-0.1-0.1-0.1-0.2c0-0.1,0-0.1,0-0.2c0-0.1,0-0.2,0-0.2
					c0-0.1,0.1-0.1,0.1-0.2c0.1-0.1,0.1-0.1,0.2-0.1c0.1,0,0.1,0,0.2,0c0.1,0,0.2,0,0.2,0c0.1,0,0.1,0.1,0.2,0.1
					c0.1,0.1,0.1,0.1,0.1,0.2C226.9,51.1,227,51.2,227,51.3z M226.7,53.6v6.7H226v-6.7H226.7z"/>
				<path class="st1" d="M231.7,60.2v-6.7h0.3c0.1,0,0.2,0.1,0.2,0.2l0.1,1c0.3-0.4,0.7-0.7,1.1-0.9c0.4-0.2,0.9-0.4,1.3-0.4
					c0.4,0,0.7,0.1,1,0.2c0.3,0.1,0.5,0.3,0.7,0.5c0.2,0.2,0.3,0.5,0.4,0.8c0.1,0.3,0.1,0.7,0.1,1v4.3h-0.6V56
					c0-0.6-0.1-1.1-0.4-1.5c-0.3-0.4-0.7-0.5-1.3-0.5c-0.4,0-0.8,0.1-1.2,0.3s-0.7,0.5-1,0.9v5H231.7z"/>
				<path class="st1" d="M246.1,54.4C246.1,54.5,246,54.5,246.1,54.4c-0.1,0.1-0.1,0.1-0.1,0.1c0,0-0.1,0-0.2-0.1
					c-0.1-0.1-0.2-0.1-0.3-0.2c-0.1-0.1-0.3-0.1-0.5-0.2c-0.2-0.1-0.4-0.1-0.7-0.1c-0.4,0-0.7,0.1-1,0.2c-0.3,0.1-0.5,0.3-0.7,0.6
					c-0.2,0.3-0.4,0.6-0.5,0.9c-0.1,0.4-0.2,0.8-0.2,1.2c0,0.5,0.1,0.9,0.2,1.2c0.1,0.4,0.3,0.7,0.5,0.9c0.2,0.2,0.4,0.4,0.7,0.6
					s0.6,0.2,1,0.2c0.3,0,0.6,0,0.8-0.1c0.2-0.1,0.4-0.2,0.5-0.2c0.1-0.1,0.3-0.2,0.3-0.2c0.1-0.1,0.1-0.1,0.2-0.1
					c0.1,0,0.1,0,0.1,0.1l0.2,0.2c-0.1,0.1-0.2,0.3-0.4,0.4c-0.2,0.1-0.3,0.2-0.5,0.3c-0.2,0.1-0.4,0.2-0.6,0.2
					c-0.2,0-0.5,0.1-0.7,0.1c-0.4,0-0.8-0.1-1.2-0.2c-0.4-0.2-0.7-0.4-0.9-0.7c-0.3-0.3-0.4-0.7-0.6-1.1c-0.1-0.4-0.2-0.9-0.2-1.4
					c0-0.5,0.1-1,0.2-1.4c0.1-0.4,0.3-0.8,0.6-1.1c0.3-0.3,0.6-0.5,0.9-0.7c0.4-0.2,0.8-0.3,1.3-0.3c0.4,0,0.8,0.1,1.2,0.2
					c0.3,0.1,0.6,0.3,0.9,0.6L246.1,54.4z"/>
				<path class="st1" d="M250.1,59.7c0-0.1,0-0.2,0-0.2c0-0.1,0.1-0.1,0.1-0.2c0.1-0.1,0.1-0.1,0.2-0.1c0.1,0,0.2,0,0.2,0
					c0.1,0,0.2,0,0.2,0c0.1,0,0.1,0.1,0.2,0.1c0.1,0.1,0.1,0.1,0.1,0.2c0,0.1,0.1,0.2,0.1,0.2c0,0.1,0,0.2-0.1,0.2
					c0,0.1-0.1,0.1-0.1,0.2c-0.1,0.1-0.1,0.1-0.2,0.1c-0.1,0-0.2,0-0.2,0c-0.2,0-0.3-0.1-0.4-0.2C250.2,60,250.1,59.9,250.1,59.7z"
					/>
			</g>
		</g>
	</g>
	<g>
		<g>
			<path class="st1" d="M-234.6,71.7h4.8v6.5h-4.8V71.7z M-234.6,84.7h4.8v28h-4.8V84.7z"/>
			<path class="st1" d="M-210.5,84.1c2,0,3.9,0.4,5.7,1.1c1.8,0.8,3.3,1.8,4.7,3.1c1.3,1.3,2.4,2.9,3.1,4.6c0.8,1.8,1.1,3.7,1.1,5.7
				v14h-4.8v-14c0-1.3-0.3-2.6-0.8-3.8c-0.5-1.2-1.2-2.2-2.1-3.1c-0.9-0.9-1.9-1.6-3.1-2.1c-1.2-0.5-2.5-0.8-3.9-0.8
				c-1.3,0-2.6,0.3-3.8,0.8c-1.2,0.5-2.2,1.2-3.1,2.1c-0.9,0.9-1.6,1.9-2.1,3.1c-0.5,1.2-0.8,2.5-0.8,3.8v14h-4.8v-14
				c0-2,0.4-3.9,1.1-5.7c0.8-1.8,1.8-3.3,3.1-4.6c1.3-1.3,2.9-2.3,4.6-3.1C-214.4,84.5-212.5,84.1-210.5,84.1z"/>
			<path class="st1" d="M-166,84.7l-12,28h-4.3l-12-28h5.2l9,21c1.5-3.5,3-7,4.5-10.6c1.5-3.6,3-7.1,4.5-10.5H-166z"/>
			<path class="st1" d="M-150.6,113.4c-2,0-3.9-0.4-5.7-1.1s-3.3-1.8-4.7-3.1c-1.3-1.3-2.4-2.9-3.1-4.6c-0.8-1.8-1.1-3.6-1.1-5.7
				c0-2,0.4-3.9,1.1-5.7c0.8-1.8,1.8-3.3,3.1-4.7c1.3-1.3,2.9-2.3,4.7-3.1s3.7-1.1,5.7-1.1c2,0,3.9,0.4,5.7,1.1
				c1.8,0.8,3.3,1.8,4.6,3.1c1.3,1.3,2.3,2.9,3.1,4.7c0.8,1.8,1.1,3.7,1.1,5.7c0,0.3,0,0.5,0,0.8s0,0.8-0.1,1.5H-160
				c0.3,1.1,0.7,2.1,1.3,3c0.6,0.9,1.3,1.7,2.1,2.4c0.8,0.7,1.7,1.2,2.8,1.6c1,0.4,2.1,0.6,3.3,0.6c0.9,0,1.8-0.2,2.7-0.7
				c0.9-0.5,1.8-1.1,2.6-1.9l3.4,3.4c-1.2,1.2-2.6,2.2-4.1,2.9C-147.5,113-149,113.4-150.6,113.4z M-141.1,96.4
				c-0.3-1-0.7-2-1.3-2.9c-0.6-0.9-1.3-1.7-2.1-2.4c-0.8-0.7-1.7-1.2-2.8-1.5c-1-0.4-2.1-0.6-3.3-0.6c-1.2,0-2.3,0.2-3.3,0.6
				c-1,0.4-2,0.9-2.8,1.5c-0.8,0.7-1.5,1.4-2.1,2.4c-0.6,0.9-1,1.9-1.3,2.9H-141.1z"/>
			<path class="st1" d="M-115.9,84.1c2,0,3.9,0.4,5.7,1.1c1.8,0.8,3.3,1.8,4.7,3.1c1.3,1.3,2.4,2.9,3.1,4.6c0.8,1.8,1.1,3.7,1.1,5.7
				v14h-4.8v-14c0-1.3-0.3-2.6-0.8-3.8c-0.5-1.2-1.2-2.2-2.1-3.1c-0.9-0.9-1.9-1.6-3.1-2.1c-1.2-0.5-2.5-0.8-3.9-0.8
				c-1.3,0-2.6,0.3-3.8,0.8c-1.2,0.5-2.2,1.2-3.1,2.1c-0.9,0.9-1.6,1.9-2.1,3.1c-0.5,1.2-0.8,2.5-0.8,3.8v14h-4.8v-14
				c0-2,0.4-3.9,1.1-5.7c0.8-1.8,1.8-3.3,3.1-4.6c1.3-1.3,2.9-2.3,4.6-3.1C-119.8,84.5-117.9,84.1-115.9,84.1z"/>
			<path class="st1" d="M-96,78h4.8v6.8h9.8v4.8h-9.8v15.7c0,0.8,0.3,1.5,0.9,2.1c0.6,0.6,1.3,0.9,2.2,0.9c0.9,0,1.6-0.4,2.2-1.2
				c0.6-0.8,0.9-1.7,0.9-2.9h4.8c0,1.2-0.2,2.4-0.6,3.4c-0.4,1.1-1,2-1.7,2.8c-0.7,0.8-1.5,1.4-2.5,1.9c-1,0.5-2,0.7-3.1,0.7
				c-1.1,0-2.1-0.2-3.1-0.6c-1-0.4-1.8-1-2.5-1.7c-0.7-0.7-1.3-1.5-1.7-2.5c-0.4-0.9-0.6-1.9-0.6-3V78z"/>
			<path class="st1" d="M-63.5,84.1c2,0,3.9,0.4,5.7,1.1c1.8,0.8,3.3,1.8,4.6,3.1c1.3,1.3,2.4,2.9,3.1,4.6c0.8,1.8,1.1,3.7,1.1,5.7
				c0,2-0.4,3.9-1.1,5.7c-0.8,1.8-1.8,3.3-3.1,4.6c-1.3,1.3-2.9,2.3-4.6,3.1c-1.8,0.8-3.7,1.1-5.7,1.1c-2,0-3.9-0.4-5.7-1.1
				c-1.8-0.8-3.3-1.8-4.6-3.1c-1.3-1.3-2.4-2.8-3.1-4.6c-0.8-1.8-1.1-3.7-1.1-5.7c0-2,0.4-3.9,1.1-5.7c0.8-1.8,1.8-3.3,3.1-4.6
				c1.3-1.3,2.9-2.3,4.6-3.1C-67.4,84.5-65.5,84.1-63.5,84.1z M-63.5,88.9c-1.3,0-2.6,0.3-3.8,0.8s-2.2,1.2-3.1,2.1
				c-0.9,0.9-1.6,1.9-2.1,3.1c-0.5,1.2-0.8,2.5-0.8,3.8c0,1.3,0.3,2.6,0.8,3.8c0.5,1.2,1.2,2.2,2.1,3.1c0.9,0.9,1.9,1.6,3.1,2.1
				c1.2,0.5,2.5,0.8,3.8,0.8c1.3,0,2.6-0.3,3.8-0.8c1.2-0.5,2.2-1.2,3.1-2.1c0.9-0.9,1.6-1.9,2.1-3.1c0.5-1.2,0.8-2.5,0.8-3.8
				c0-1.3-0.3-2.6-0.8-3.8c-0.5-1.2-1.2-2.2-2.1-3.1c-0.9-0.9-1.9-1.6-3.1-2.1C-60.9,89.2-62.2,88.9-63.5,88.9z"/>
		</g>
		<g>
			<path class="st1" d="M-230.3,119.4c0,0.1-0.1,0.1-0.1,0.1c0,0-0.1,0-0.2-0.1c-0.1-0.1-0.2-0.1-0.3-0.2c-0.1-0.1-0.3-0.1-0.5-0.2
				c-0.2-0.1-0.4-0.1-0.7-0.1c-0.2,0-0.5,0-0.7,0.1c-0.2,0.1-0.4,0.2-0.5,0.3c-0.1,0.1-0.3,0.3-0.3,0.4c-0.1,0.2-0.1,0.3-0.1,0.5
				c0,0.2,0.1,0.4,0.2,0.5c0.1,0.1,0.2,0.3,0.4,0.4c0.2,0.1,0.4,0.2,0.6,0.3c0.2,0.1,0.4,0.1,0.7,0.2c0.2,0.1,0.5,0.2,0.7,0.2
				c0.2,0.1,0.4,0.2,0.6,0.3c0.2,0.1,0.3,0.3,0.4,0.5c0.1,0.2,0.2,0.4,0.2,0.7c0,0.3-0.1,0.6-0.2,0.8c-0.1,0.3-0.3,0.5-0.5,0.6
				c-0.2,0.2-0.4,0.3-0.7,0.4c-0.3,0.1-0.6,0.2-1,0.2c-0.5,0-0.9-0.1-1.2-0.2c-0.3-0.1-0.6-0.3-0.9-0.6l0.2-0.2c0,0,0-0.1,0.1-0.1
				c0,0,0.1,0,0.1,0c0.1,0,0.1,0,0.2,0.1c0.1,0.1,0.2,0.1,0.3,0.2c0.1,0.1,0.3,0.2,0.5,0.2c0.2,0.1,0.5,0.1,0.8,0.1
				c0.3,0,0.5,0,0.7-0.1c0.2-0.1,0.4-0.2,0.5-0.3c0.1-0.1,0.3-0.3,0.3-0.5c0.1-0.2,0.1-0.4,0.1-0.6c0-0.2-0.1-0.4-0.2-0.6
				c-0.1-0.1-0.2-0.3-0.4-0.4c-0.2-0.1-0.4-0.2-0.6-0.3c-0.2-0.1-0.4-0.1-0.7-0.2c-0.2-0.1-0.5-0.1-0.7-0.2
				c-0.2-0.1-0.4-0.2-0.6-0.3c-0.2-0.1-0.3-0.3-0.4-0.5c-0.1-0.2-0.2-0.4-0.2-0.7c0-0.2,0.1-0.5,0.2-0.7c0.1-0.2,0.2-0.4,0.4-0.6
				c0.2-0.2,0.4-0.3,0.7-0.4c0.3-0.1,0.6-0.1,0.9-0.1c0.4,0,0.8,0.1,1.1,0.2c0.3,0.1,0.6,0.3,0.9,0.5L-230.3,119.4z"/>
			<path class="st1" d="M-222.9,118.5c0.5,0,0.9,0.1,1.3,0.2c0.4,0.2,0.7,0.4,1,0.7c0.3,0.3,0.5,0.7,0.6,1.1
				c0.1,0.4,0.2,0.9,0.2,1.4c0,0.5-0.1,1-0.2,1.4c-0.1,0.4-0.3,0.8-0.6,1.1c-0.3,0.3-0.6,0.5-1,0.7c-0.4,0.2-0.8,0.2-1.3,0.2
				c-0.5,0-0.9-0.1-1.3-0.2c-0.4-0.2-0.7-0.4-1-0.7c-0.3-0.3-0.5-0.7-0.6-1.1c-0.1-0.4-0.2-0.9-0.2-1.4c0-0.5,0.1-1,0.2-1.4
				c0.1-0.4,0.3-0.8,0.6-1.1c0.3-0.3,0.6-0.5,1-0.7C-223.8,118.6-223.4,118.5-222.9,118.5z M-222.9,124.9c0.4,0,0.7-0.1,1-0.2
				c0.3-0.1,0.5-0.3,0.7-0.6c0.2-0.3,0.3-0.6,0.4-0.9c0.1-0.4,0.1-0.8,0.1-1.2c0-0.4,0-0.8-0.1-1.2s-0.2-0.7-0.4-0.9
				c-0.2-0.3-0.4-0.5-0.7-0.6c-0.3-0.1-0.6-0.2-1-0.2s-0.7,0.1-1,0.2c-0.3,0.1-0.5,0.3-0.7,0.6c-0.2,0.3-0.3,0.6-0.4,0.9
				c-0.1,0.4-0.2,0.8-0.2,1.2c0,0.4,0,0.9,0.2,1.2c0.1,0.4,0.3,0.7,0.4,0.9c0.2,0.3,0.4,0.4,0.7,0.6S-223.3,124.9-222.9,124.9z"/>
			<path class="st1" d="M-215.3,125.3v-6l-0.9-0.1c-0.1,0-0.2-0.1-0.2-0.2v-0.3h1.1V118c0-0.4,0-0.7,0.1-1c0.1-0.3,0.2-0.5,0.4-0.7
				c0.2-0.2,0.4-0.3,0.6-0.4c0.3-0.1,0.5-0.1,0.8-0.1c0.1,0,0.3,0,0.4,0s0.3,0.1,0.4,0.1l0,0.3c0,0.1,0,0.1-0.1,0.1
				c-0.1,0-0.1,0-0.2,0c-0.1,0-0.2,0-0.3,0c-0.2,0-0.4,0-0.6,0.1c-0.2,0.1-0.3,0.2-0.5,0.3c-0.1,0.1-0.2,0.3-0.3,0.6
				c-0.1,0.2-0.1,0.5-0.1,0.8v0.8h2.2v0.5h-2.2v6H-215.3z"/>
			<path class="st1" d="M-206.7,125.4c-0.5,0-0.8-0.1-1.1-0.4c-0.2-0.3-0.4-0.6-0.4-1.2v-4.6h-1c0,0-0.1,0-0.1,0c0,0,0-0.1,0-0.1
				v-0.2l1.1-0.1l0.2-2.4c0,0,0-0.1,0-0.1c0,0,0.1,0,0.1,0h0.3v2.5h2.1v0.5h-2.1v4.5c0,0.2,0,0.3,0.1,0.5c0,0.1,0.1,0.2,0.2,0.3
				c0.1,0.1,0.2,0.1,0.3,0.2c0.1,0,0.2,0.1,0.4,0.1c0.2,0,0.3,0,0.4-0.1c0.1,0,0.2-0.1,0.3-0.2c0.1-0.1,0.2-0.1,0.2-0.2
				c0.1,0,0.1-0.1,0.1-0.1c0,0,0.1,0,0.1,0.1l0.2,0.3c-0.2,0.2-0.4,0.3-0.6,0.5C-206.1,125.3-206.4,125.4-206.7,125.4z"/>
			<path class="st1" d="M-201.9,118.6h0.5c0.1,0,0.1,0,0.2,0.1c0,0,0.1,0.1,0.1,0.1l1.7,5.3c0,0.1,0.1,0.2,0.1,0.3
				c0,0.1,0,0.2,0.1,0.3c0-0.1,0-0.2,0.1-0.3c0-0.1,0.1-0.2,0.1-0.3l1.8-5.3c0-0.1,0.1-0.1,0.2-0.1h0.3c0.1,0,0.2,0,0.2,0.1l1.8,5.3
				c0.1,0.2,0.1,0.4,0.2,0.6c0-0.1,0-0.2,0.1-0.3c0-0.1,0-0.2,0.1-0.3l1.7-5.3c0-0.1,0.1-0.2,0.2-0.2h0.5l-2.2,6.7h-0.5
				c-0.1,0-0.1,0-0.2-0.1l-1.8-5.4c0-0.1,0-0.1-0.1-0.2c0-0.1,0-0.1,0-0.2c0,0.1,0,0.1,0,0.2c0,0.1,0,0.1-0.1,0.2l-1.8,5.4
				c0,0.1-0.1,0.1-0.2,0.1h-0.4L-201.9,118.6z"/>
			<path class="st1" d="M-184.2,125.3c-0.1,0-0.2-0.1-0.2-0.2l-0.1-0.9c-0.2,0.2-0.4,0.3-0.5,0.5c-0.2,0.1-0.4,0.3-0.6,0.4
				c-0.2,0.1-0.4,0.2-0.6,0.2c-0.2,0.1-0.5,0.1-0.8,0.1c-0.2,0-0.4,0-0.7-0.1s-0.4-0.2-0.6-0.3c-0.2-0.1-0.3-0.3-0.4-0.5
				c-0.1-0.2-0.2-0.5-0.2-0.8c0-0.3,0.1-0.5,0.2-0.8c0.2-0.2,0.4-0.5,0.8-0.6c0.3-0.2,0.8-0.3,1.3-0.4c0.5-0.1,1.2-0.2,1.9-0.2v-0.7
				c0-0.6-0.1-1.1-0.4-1.4c-0.3-0.3-0.7-0.5-1.2-0.5c-0.3,0-0.6,0-0.8,0.1c-0.2,0.1-0.4,0.2-0.6,0.3c-0.2,0.1-0.3,0.2-0.4,0.3
				c-0.1,0.1-0.2,0.1-0.2,0.1c-0.1,0-0.2,0-0.2-0.1l-0.1-0.2c0.3-0.3,0.7-0.6,1.1-0.8c0.4-0.2,0.8-0.3,1.3-0.3
				c0.4,0,0.7,0.1,0.9,0.2c0.3,0.1,0.5,0.3,0.7,0.5c0.2,0.2,0.3,0.5,0.4,0.8c0.1,0.3,0.1,0.6,0.1,1v4.3H-184.2z M-186.9,124.9
				c0.3,0,0.5,0,0.7-0.1c0.2-0.1,0.4-0.1,0.6-0.2c0.2-0.1,0.4-0.2,0.5-0.4c0.2-0.1,0.3-0.3,0.5-0.4v-1.7c-0.6,0-1.2,0.1-1.6,0.1
				c-0.5,0.1-0.8,0.2-1.1,0.3c-0.3,0.1-0.5,0.3-0.7,0.5c-0.1,0.2-0.2,0.4-0.2,0.6c0,0.2,0,0.4,0.1,0.6c0.1,0.2,0.2,0.3,0.3,0.4
				c0.1,0.1,0.3,0.2,0.4,0.2C-187.2,124.9-187,124.9-186.9,124.9z"/>
			<path class="st1" d="M-179.2,125.3v-6.7h0.3c0.1,0,0.1,0,0.2,0c0,0,0.1,0.1,0.1,0.2l0.1,1.4c0.2-0.5,0.5-1,0.9-1.3
				c0.4-0.3,0.8-0.5,1.3-0.5c0.2,0,0.4,0,0.6,0.1c0.2,0,0.3,0.1,0.5,0.2l-0.1,0.4c0,0.1-0.1,0.1-0.1,0.1c0,0-0.1,0-0.1,0
				c-0.1,0-0.1,0-0.2-0.1c-0.1,0-0.2,0-0.3-0.1c-0.1,0-0.2,0-0.4,0c-0.5,0-0.9,0.2-1.2,0.5c-0.3,0.3-0.6,0.8-0.8,1.4v4.3H-179.2z"/>
			<path class="st1" d="M-168.7,118.5c0.4,0,0.7,0.1,1,0.2c0.3,0.1,0.6,0.3,0.8,0.6c0.2,0.2,0.4,0.6,0.5,0.9
				c0.1,0.4,0.2,0.8,0.2,1.2c0,0.1,0,0.2,0,0.2c0,0-0.1,0.1-0.1,0.1h-4.8v0.1c0,0.5,0.1,0.9,0.2,1.3c0.1,0.4,0.3,0.7,0.5,1
				c0.2,0.3,0.5,0.4,0.8,0.6c0.3,0.1,0.6,0.2,1,0.2c0.3,0,0.6,0,0.9-0.1c0.2-0.1,0.5-0.2,0.6-0.2c0.2-0.1,0.3-0.2,0.4-0.2
				c0.1-0.1,0.2-0.1,0.2-0.1c0.1,0,0.1,0,0.1,0.1l0.2,0.2c-0.1,0.1-0.2,0.3-0.4,0.4c-0.2,0.1-0.4,0.2-0.6,0.3
				c-0.2,0.1-0.4,0.1-0.7,0.2c-0.2,0-0.5,0.1-0.7,0.1c-0.5,0-0.9-0.1-1.2-0.2c-0.4-0.2-0.7-0.4-1-0.7c-0.3-0.3-0.5-0.7-0.6-1.1
				s-0.2-0.9-0.2-1.5c0-0.5,0.1-0.9,0.2-1.3c0.1-0.4,0.3-0.8,0.6-1c0.3-0.3,0.6-0.5,0.9-0.7C-169.6,118.6-169.1,118.5-168.7,118.5z
				 M-168.6,119c-0.3,0-0.7,0.1-0.9,0.2c-0.3,0.1-0.5,0.3-0.7,0.5c-0.2,0.2-0.4,0.4-0.5,0.7s-0.2,0.6-0.2,0.9h4.4c0-0.4,0-0.7-0.1-1
				c-0.1-0.3-0.2-0.5-0.4-0.7c-0.2-0.2-0.4-0.3-0.6-0.5C-168.1,119-168.3,119-168.6,119z"/>
			<path class="st1" d="M-152.6,119.4c0,0.1-0.1,0.1-0.1,0.1c0,0-0.1,0-0.2-0.1c-0.1-0.1-0.2-0.1-0.3-0.2c-0.1-0.1-0.3-0.1-0.5-0.2
				c-0.2-0.1-0.4-0.1-0.7-0.1c-0.2,0-0.5,0-0.7,0.1c-0.2,0.1-0.4,0.2-0.5,0.3c-0.1,0.1-0.3,0.3-0.3,0.4c-0.1,0.2-0.1,0.3-0.1,0.5
				c0,0.2,0.1,0.4,0.2,0.5c0.1,0.1,0.2,0.3,0.4,0.4c0.2,0.1,0.4,0.2,0.6,0.3c0.2,0.1,0.4,0.1,0.7,0.2c0.2,0.1,0.5,0.2,0.7,0.2
				c0.2,0.1,0.4,0.2,0.6,0.3c0.2,0.1,0.3,0.3,0.4,0.5c0.1,0.2,0.2,0.4,0.2,0.7c0,0.3-0.1,0.6-0.2,0.8c-0.1,0.3-0.3,0.5-0.5,0.6
				c-0.2,0.2-0.4,0.3-0.7,0.4c-0.3,0.1-0.6,0.2-1,0.2c-0.5,0-0.9-0.1-1.2-0.2c-0.3-0.1-0.6-0.3-0.9-0.6l0.2-0.2c0,0,0-0.1,0.1-0.1
				c0,0,0.1,0,0.1,0c0.1,0,0.1,0,0.2,0.1c0.1,0.1,0.2,0.1,0.3,0.2c0.1,0.1,0.3,0.2,0.5,0.2c0.2,0.1,0.5,0.1,0.8,0.1
				c0.3,0,0.5,0,0.7-0.1c0.2-0.1,0.4-0.2,0.5-0.3c0.1-0.1,0.3-0.3,0.3-0.5c0.1-0.2,0.1-0.4,0.1-0.6c0-0.2-0.1-0.4-0.2-0.6
				c-0.1-0.1-0.2-0.3-0.4-0.4c-0.2-0.1-0.4-0.2-0.6-0.3c-0.2-0.1-0.4-0.1-0.7-0.2c-0.2-0.1-0.5-0.1-0.7-0.2
				c-0.2-0.1-0.4-0.2-0.6-0.3c-0.2-0.1-0.3-0.3-0.4-0.5c-0.1-0.2-0.2-0.4-0.2-0.7c0-0.2,0.1-0.5,0.2-0.7c0.1-0.2,0.2-0.4,0.4-0.6
				c0.2-0.2,0.4-0.3,0.7-0.4c0.3-0.1,0.6-0.1,0.9-0.1c0.4,0,0.8,0.1,1.1,0.2c0.3,0.1,0.6,0.3,0.9,0.5L-152.6,119.4z"/>
			<path class="st1" d="M-145.3,118.5c0.5,0,0.9,0.1,1.3,0.2c0.4,0.2,0.7,0.4,1,0.7c0.3,0.3,0.5,0.7,0.6,1.1
				c0.1,0.4,0.2,0.9,0.2,1.4c0,0.5-0.1,1-0.2,1.4c-0.1,0.4-0.3,0.8-0.6,1.1c-0.3,0.3-0.6,0.5-1,0.7c-0.4,0.2-0.8,0.2-1.3,0.2
				c-0.5,0-0.9-0.1-1.3-0.2c-0.4-0.2-0.7-0.4-1-0.7c-0.3-0.3-0.5-0.7-0.6-1.1c-0.1-0.4-0.2-0.9-0.2-1.4c0-0.5,0.1-1,0.2-1.4
				c0.1-0.4,0.3-0.8,0.6-1.1c0.3-0.3,0.6-0.5,1-0.7C-146.2,118.6-145.8,118.5-145.3,118.5z M-145.3,124.9c0.4,0,0.7-0.1,1-0.2
				c0.3-0.1,0.5-0.3,0.7-0.6c0.2-0.3,0.3-0.6,0.4-0.9c0.1-0.4,0.1-0.8,0.1-1.2c0-0.4,0-0.8-0.1-1.2s-0.2-0.7-0.4-0.9
				c-0.2-0.3-0.4-0.5-0.7-0.6c-0.3-0.1-0.6-0.2-1-0.2s-0.7,0.1-1,0.2c-0.3,0.1-0.5,0.3-0.7,0.6c-0.2,0.3-0.3,0.6-0.4,0.9
				c-0.1,0.4-0.2,0.8-0.2,1.2c0,0.4,0,0.9,0.2,1.2c0.1,0.4,0.3,0.7,0.4,0.9c0.2,0.3,0.4,0.4,0.7,0.6S-145.7,124.9-145.3,124.9z"/>
			<path class="st1" d="M-137.1,115.5v9.8h-0.6v-9.8H-137.1z"/>
			<path class="st1" d="M-131.5,118.6v4.3c0,0.6,0.1,1.1,0.4,1.5c0.3,0.4,0.7,0.5,1.3,0.5c0.4,0,0.8-0.1,1.2-0.3
				c0.4-0.2,0.7-0.5,1-0.9v-5h0.6v6.7h-0.4c-0.1,0-0.2-0.1-0.2-0.2l-0.1-1c-0.3,0.4-0.7,0.7-1.1,0.9c-0.4,0.2-0.9,0.3-1.4,0.3
				c-0.4,0-0.7-0.1-1-0.2c-0.3-0.1-0.5-0.3-0.7-0.5c-0.2-0.2-0.3-0.5-0.4-0.8c-0.1-0.3-0.1-0.7-0.1-1v-4.3H-131.5z"/>
			<path class="st1" d="M-120.2,125.4c-0.5,0-0.8-0.1-1.1-0.4c-0.2-0.3-0.4-0.6-0.4-1.2v-4.6h-1c0,0-0.1,0-0.1,0c0,0,0-0.1,0-0.1
				v-0.2l1.1-0.1l0.2-2.4c0,0,0-0.1,0-0.1c0,0,0.1,0,0.1,0h0.3v2.5h2.1v0.5h-2.1v4.5c0,0.2,0,0.3,0.1,0.5c0,0.1,0.1,0.2,0.2,0.3
				c0.1,0.1,0.2,0.1,0.3,0.2c0.1,0,0.2,0.1,0.4,0.1c0.2,0,0.3,0,0.4-0.1c0.1,0,0.2-0.1,0.3-0.2c0.1-0.1,0.2-0.1,0.2-0.2
				c0.1,0,0.1-0.1,0.1-0.1c0,0,0.1,0,0.1,0.1l0.2,0.3c-0.2,0.2-0.4,0.3-0.6,0.5C-119.7,125.3-119.9,125.4-120.2,125.4z"/>
			<path class="st1" d="M-113.4,116.3c0,0.1,0,0.2,0,0.2c0,0.1-0.1,0.1-0.1,0.2c-0.1,0.1-0.1,0.1-0.2,0.1c-0.1,0-0.1,0-0.2,0
				c-0.1,0-0.2,0-0.2,0c-0.1,0-0.1-0.1-0.2-0.1c-0.1-0.1-0.1-0.1-0.1-0.2c0-0.1,0-0.1,0-0.2c0-0.1,0-0.2,0-0.2
				c0-0.1,0.1-0.1,0.1-0.2c0.1-0.1,0.1-0.1,0.2-0.1c0.1,0,0.1,0,0.2,0c0.1,0,0.2,0,0.2,0c0.1,0,0.1,0.1,0.2,0.1
				c0.1,0.1,0.1,0.1,0.1,0.2C-113.5,116.2-113.4,116.2-113.4,116.3z M-113.7,118.6v6.7h-0.6v-6.7H-113.7z"/>
			<path class="st1" d="M-106.1,118.5c0.5,0,0.9,0.1,1.3,0.2c0.4,0.2,0.7,0.4,1,0.7c0.3,0.3,0.5,0.7,0.6,1.1
				c0.1,0.4,0.2,0.9,0.2,1.4c0,0.5-0.1,1-0.2,1.4c-0.1,0.4-0.3,0.8-0.6,1.1c-0.3,0.3-0.6,0.5-1,0.7c-0.4,0.2-0.8,0.2-1.3,0.2
				s-0.9-0.1-1.3-0.2c-0.4-0.2-0.7-0.4-1-0.7c-0.3-0.3-0.5-0.7-0.6-1.1c-0.1-0.4-0.2-0.9-0.2-1.4c0-0.5,0.1-1,0.2-1.4
				c0.1-0.4,0.3-0.8,0.6-1.1c0.3-0.3,0.6-0.5,1-0.7C-107,118.6-106.6,118.5-106.1,118.5z M-106.1,124.9c0.4,0,0.7-0.1,1-0.2
				c0.3-0.1,0.5-0.3,0.7-0.6c0.2-0.3,0.3-0.6,0.4-0.9c0.1-0.4,0.1-0.8,0.1-1.2c0-0.4,0-0.8-0.1-1.2s-0.2-0.7-0.4-0.9
				c-0.2-0.3-0.4-0.5-0.7-0.6c-0.3-0.1-0.6-0.2-1-0.2s-0.7,0.1-1,0.2c-0.3,0.1-0.5,0.3-0.7,0.6c-0.2,0.3-0.3,0.6-0.4,0.9
				c-0.1,0.4-0.2,0.8-0.2,1.2c0,0.4,0,0.9,0.2,1.2c0.1,0.4,0.3,0.7,0.4,0.9c0.2,0.3,0.4,0.4,0.7,0.6S-106.5,124.9-106.1,124.9z"/>
			<path class="st1" d="M-98.7,125.3v-6.7h0.3c0.1,0,0.2,0.1,0.2,0.2l0.1,1c0.3-0.4,0.7-0.7,1.1-0.9c0.4-0.2,0.9-0.4,1.3-0.4
				c0.4,0,0.7,0.1,1,0.2c0.3,0.1,0.5,0.3,0.7,0.5c0.2,0.2,0.3,0.5,0.4,0.8c0.1,0.3,0.1,0.7,0.1,1v4.3h-0.6V121
				c0-0.6-0.1-1.1-0.4-1.5c-0.3-0.4-0.7-0.5-1.3-0.5c-0.4,0-0.8,0.1-1.2,0.3c-0.4,0.2-0.7,0.5-1,0.9v5H-98.7z"/>
			<path class="st1" d="M-85.1,119.4c0,0.1-0.1,0.1-0.1,0.1c0,0-0.1,0-0.2-0.1c-0.1-0.1-0.2-0.1-0.3-0.2c-0.1-0.1-0.3-0.1-0.5-0.2
				c-0.2-0.1-0.4-0.1-0.7-0.1c-0.2,0-0.5,0-0.7,0.1c-0.2,0.1-0.4,0.2-0.5,0.3c-0.1,0.1-0.3,0.3-0.3,0.4c-0.1,0.2-0.1,0.3-0.1,0.5
				c0,0.2,0.1,0.4,0.2,0.5c0.1,0.1,0.2,0.3,0.4,0.4c0.2,0.1,0.4,0.2,0.6,0.3c0.2,0.1,0.4,0.1,0.7,0.2c0.2,0.1,0.5,0.2,0.7,0.2
				c0.2,0.1,0.4,0.2,0.6,0.3c0.2,0.1,0.3,0.3,0.4,0.5c0.1,0.2,0.2,0.4,0.2,0.7c0,0.3-0.1,0.6-0.2,0.8c-0.1,0.3-0.3,0.5-0.5,0.6
				c-0.2,0.2-0.4,0.3-0.7,0.4c-0.3,0.1-0.6,0.2-1,0.2c-0.5,0-0.9-0.1-1.2-0.2c-0.3-0.1-0.6-0.3-0.9-0.6l0.2-0.2c0,0,0-0.1,0.1-0.1
				c0,0,0.1,0,0.1,0c0.1,0,0.1,0,0.2,0.1c0.1,0.1,0.2,0.1,0.3,0.2c0.1,0.1,0.3,0.2,0.5,0.2c0.2,0.1,0.5,0.1,0.8,0.1
				c0.3,0,0.5,0,0.7-0.1c0.2-0.1,0.4-0.2,0.5-0.3c0.1-0.1,0.3-0.3,0.3-0.5c0.1-0.2,0.1-0.4,0.1-0.6c0-0.2-0.1-0.4-0.2-0.6
				c-0.1-0.1-0.2-0.3-0.4-0.4c-0.2-0.1-0.4-0.2-0.6-0.3c-0.2-0.1-0.4-0.1-0.7-0.2c-0.2-0.1-0.5-0.1-0.7-0.2
				c-0.2-0.1-0.4-0.2-0.6-0.3c-0.2-0.1-0.3-0.3-0.4-0.5c-0.1-0.2-0.2-0.4-0.2-0.7c0-0.2,0.1-0.5,0.2-0.7c0.1-0.2,0.2-0.4,0.4-0.6
				c0.2-0.2,0.4-0.3,0.7-0.4c0.3-0.1,0.6-0.1,0.9-0.1c0.4,0,0.8,0.1,1.1,0.2c0.3,0.1,0.6,0.3,0.9,0.5L-85.1,119.4z"/>
			<path class="st1" d="M-73.9,116.3c0,0.1,0,0.2,0,0.2c0,0.1-0.1,0.1-0.1,0.2c-0.1,0.1-0.1,0.1-0.2,0.1c-0.1,0-0.1,0-0.2,0
				c-0.1,0-0.2,0-0.2,0c-0.1,0-0.1-0.1-0.2-0.1c-0.1-0.1-0.1-0.1-0.1-0.2c0-0.1,0-0.1,0-0.2c0-0.1,0-0.2,0-0.2
				c0-0.1,0.1-0.1,0.1-0.2c0.1-0.1,0.1-0.1,0.2-0.1c0.1,0,0.1,0,0.2,0c0.1,0,0.2,0,0.2,0c0.1,0,0.1,0.1,0.2,0.1
				c0.1,0.1,0.1,0.1,0.1,0.2C-73.9,116.2-73.9,116.2-73.9,116.3z M-74.2,118.6v6.7h-0.6v-6.7H-74.2z"/>
			<path class="st1" d="M-69.1,125.3v-6.7h0.3c0.1,0,0.2,0.1,0.2,0.2l0.1,1c0.3-0.4,0.7-0.7,1.1-0.9c0.4-0.2,0.9-0.4,1.3-0.4
				c0.4,0,0.7,0.1,1,0.2c0.3,0.1,0.5,0.3,0.7,0.5c0.2,0.2,0.3,0.5,0.4,0.8c0.1,0.3,0.1,0.7,0.1,1v4.3h-0.6V121
				c0-0.6-0.1-1.1-0.4-1.5c-0.3-0.4-0.7-0.5-1.3-0.5c-0.4,0-0.8,0.1-1.2,0.3c-0.4,0.2-0.7,0.5-1,0.9v5H-69.1z"/>
			<path class="st1" d="M-54.7,119.5C-54.8,119.5-54.8,119.5-54.7,119.5c-0.1,0.1-0.1,0.1-0.1,0.1c0,0-0.1,0-0.2-0.1
				c-0.1-0.1-0.2-0.1-0.3-0.2c-0.1-0.1-0.3-0.1-0.5-0.2c-0.2-0.1-0.4-0.1-0.7-0.1c-0.4,0-0.7,0.1-1,0.2c-0.3,0.1-0.5,0.3-0.7,0.6
				c-0.2,0.3-0.4,0.6-0.5,0.9c-0.1,0.4-0.2,0.8-0.2,1.2c0,0.5,0.1,0.9,0.2,1.2s0.3,0.7,0.5,0.9c0.2,0.2,0.4,0.4,0.7,0.6
				c0.3,0.1,0.6,0.2,1,0.2c0.3,0,0.6,0,0.8-0.1c0.2-0.1,0.4-0.2,0.5-0.2c0.1-0.1,0.3-0.2,0.3-0.2c0.1-0.1,0.1-0.1,0.2-0.1
				c0.1,0,0.1,0,0.1,0.1l0.2,0.2c-0.1,0.1-0.2,0.3-0.4,0.4c-0.2,0.1-0.3,0.2-0.5,0.3c-0.2,0.1-0.4,0.2-0.6,0.2
				c-0.2,0-0.5,0.1-0.7,0.1c-0.4,0-0.8-0.1-1.2-0.2c-0.4-0.2-0.7-0.4-0.9-0.7c-0.3-0.3-0.4-0.7-0.6-1.1c-0.1-0.4-0.2-0.9-0.2-1.4
				c0-0.5,0.1-1,0.2-1.4c0.1-0.4,0.3-0.8,0.6-1.1c0.3-0.3,0.6-0.5,0.9-0.7c0.4-0.2,0.8-0.3,1.3-0.3c0.4,0,0.8,0.1,1.2,0.2
				s0.6,0.3,0.9,0.6L-54.7,119.5z"/>
			<path class="st1" d="M-50.7,124.8c0-0.1,0-0.2,0-0.2c0-0.1,0.1-0.1,0.1-0.2c0.1-0.1,0.1-0.1,0.2-0.1c0.1,0,0.2,0,0.2,0
				c0.1,0,0.2,0,0.2,0c0.1,0,0.1,0.1,0.2,0.1c0.1,0.1,0.1,0.1,0.1,0.2c0,0.1,0.1,0.2,0.1,0.2c0,0.1,0,0.2-0.1,0.2
				c0,0.1-0.1,0.1-0.1,0.2c-0.1,0.1-0.1,0.1-0.2,0.1c-0.1,0-0.2,0-0.2,0c-0.2,0-0.3-0.1-0.4-0.2C-50.6,125.1-50.7,124.9-50.7,124.8z
				"/>
		</g>
	</g>
</g>
</svg>
